<svg xmlns="http://www.w3.org/2000/svg" width="390" height="18309" viewBox="0 0 390 18309"><title>Wireframe 4 — Shopping Finds Article — mobile</title><rect width="390" height="18309" fill="#FAF8F3"/><text x="24" y="43.0" font-family="Arial" font-size="22" fill="#292B25">☰</text><text x="195.0" y="44.0" text-anchor="middle" font-family="Georgia" font-size="29" fill="#292B25">home &amp; living</text><text x="324" y="41.0" font-family="Arial" font-size="10" fill="#292B25">SEARCH</text><text x="24" y="105.0" font-family="Arial" font-size="11" fill="#65685D">Shopping › Shopping Finds</text><text x="195.0" y="170.0" text-anchor="middle" font-family="Arial" font-size="12" fill="#46513E">SHOPPING FINDS</text><text x="195.0" y="228.0" text-anchor="middle" font-family="Georgia" font-size="39" fill="#292B25">15 Amazon</text><text x="195.0" y="275.58" text-anchor="middle" font-family="Georgia" font-size="39" fill="#292B25">Bedroom Finds</text><text x="195.0" y="323.15999999999997" text-anchor="middle" font-family="Georgia" font-size="39" fill="#292B25">Worth</text><text x="195.0" y="370.74" text-anchor="middle" font-family="Georgia" font-size="39" fill="#292B25">Discovering</text><text x="195.0" y="436.32" text-anchor="middle" font-family="Arial" font-size="16" fill="#292B25">Stylish and practical finds for creating</text><text x="195.0" y="455.84" text-anchor="middle" font-family="Arial" font-size="16" fill="#292B25">a more comfortable, organized and</text><text x="195.0" y="475.36" text-anchor="middle" font-family="Arial" font-size="16" fill="#292B25">beautiful bedroom.</text><text x="195.0" y="514.88" text-anchor="middle" font-family="Arial" font-size="12" fill="#65685D">By Author Name · Updated Date</text><rect x="24.0" y="562.88" width="342" height="1" fill="#D6D1C5"/><text x="24.0" y="592.88" font-family="Arial" font-size="11" fill="#46513E">AFFILIATE DISCLOSURE</text><text x="24.0" y="621.88" font-family="Arial" font-size="13" fill="#292B25">We may earn a commission when you purchase</text><text x="24.0" y="638.52" font-family="Arial" font-size="13" fill="#292B25">through links on this page, at no additional</text><text x="24.0" y="655.16" font-family="Arial" font-size="13" fill="#292B25">cost to you.</text><image x="24" y="700.8" width="342" height="345" preserveAspectRatio="xMidYMid slice" href="../assets/0f6bd4b6c657c8df.jpg"/><text x="24" y="1075.8" font-family="Arial" font-size="10" fill="#65685D">Image credit · illustrative photography</text><text x="24.0" y="1135.8" font-family="Arial" font-size="16" fill="#292B25">Thoughtful lighting, useful storage</text><text x="24.0" y="1156.28" font-family="Arial" font-size="16" fill="#292B25">and soft textiles can make a bedroom</text><text x="24.0" y="1176.76" font-family="Arial" font-size="16" fill="#292B25">feel more comfortable. These fifteen</text><text x="24.0" y="1197.24" font-family="Arial" font-size="16" fill="#292B25">find concepts show how small additions</text><text x="24.0" y="1217.72" font-family="Arial" font-size="16" fill="#292B25">can support the way you use your room,</text><text x="24.0" y="1238.2" font-family="Arial" font-size="16" fill="#292B25">while keeping the overall look calm</text><text x="24.0" y="1258.6799999999998" font-family="Arial" font-size="16" fill="#292B25">and cohesive.</text><text x="24" y="1339.1599999999999" font-family="Georgia" font-size="30" fill="#292B25">Our Finds</text><a href="#find-1"><rect x="24" y="1381.1599999999999" width="163" height="145" fill="#F0EDE6"/><g transform="translate(24.0 1392.5349999999999) scale(0.4075)" stroke="#857963" stroke-width="2" stroke-linejoin="round"><path d="M130 135L153 50H247L270 135Z" fill="#DDD2BC"/><path d="M179 160Q160 212 175 239H225Q240 212 221 160Z" fill="#B6A388"/><path d="M200 135V160M165 243H235"/></g><text x="24" y="1556.1599999999999" font-family="Georgia" font-size="19" fill="#292B25">Lamp ↓</text></a><a href="#find-2"><rect x="203" y="1381.1599999999999" width="163" height="145" fill="#F0EDE6"/><g transform="translate(203.0 1392.5349999999999) scale(0.4075)" stroke="#857963" stroke-width="2" stroke-linejoin="round"><path d="M80 130L123 95H290L328 130V220H80Z" fill="#C2B7A4"/><path d="M80 130H328M125 170H280M170 190H230"/></g><text x="203" y="1556.1599999999999" font-family="Georgia" font-size="19" fill="#292B25">Storage ↓</text></a><a href="#find-3"><rect x="24" y="1596.1599999999999" width="163" height="145" fill="#F0EDE6"/><g transform="translate(24.0 1607.5349999999999) scale(0.4075)" stroke="#857963" stroke-width="2" stroke-linejoin="round"><path d="M105 70H280L302 224H126Z" fill="#C7B49B"/><path d="M130 90L150 214M165 90L185 214M200 90L220 214M235 90L255 214M128 226L130 243M155 226L157 243M185 226L187 243M215 226L217 243M245 226L247 243M275 226L277 243"/></g><text x="24" y="1771.1599999999999" font-family="Georgia" font-size="19" fill="#292B25">Textiles ↓</text></a><a href="#find-12"><rect x="203" y="1596.1599999999999" width="163" height="145" fill="#F0EDE6"/><g transform="translate(203.0 1607.5349999999999) scale(0.4075)" stroke="#857963" stroke-width="2" stroke-linejoin="round"><rect x="112" y="91" width="176" height="128" fill="#BB9F7D"/><path d="M112 152H288M127 219V258M273 219V258M188 123H211M188 184H211"/></g><text x="203" y="1771.1599999999999" font-family="Georgia" font-size="19" fill="#292B25">Nightstand ↓</text></a><g id="find-1"><title>Ceramic Bedside Lamp</title><rect x="24" y="1846.1599999999999" width="342" height="1" fill="#D6D1C5"/><text x="24.0" y="1887.1599999999999" font-family="Arial" font-size="11" fill="#46513E">01  /  LIGHTING</text><text x="24.0" y="1930.1599999999999" font-family="Georgia" font-size="32" fill="#292B25">Ceramic Bedside Lamp</text><rect x="24.0" y="1991.12" width="342" height="290" fill="#F0EDE6"/><g transform="translate(24.0 2007.87) scale(0.855)" stroke="#857963" stroke-width="2" stroke-linejoin="round"><path d="M130 135L153 50H247L270 135Z" fill="#DDD2BC"/><path d="M179 160Q160 212 175 239H225Q240 212 221 160Z" fill="#B6A388"/><path d="M200 135V160M165 243H235"/></g><rect x="49.0" y="2306.12" width="292" height="52" fill="#46513E"/><text x="195.0" y="2338.12" text-anchor="middle" font-family="Arial" font-size="12" fill="#FFFFFF">CHECK PRICE AT AMAZON ↗</text><text x="24.0" y="2391.12" font-family="Arial" font-size="11" fill="#46513E">WHY WE LIKE IT</text><text x="24.0" y="2423.12" font-family="Arial" font-size="16" fill="#292B25">A soft silhouette can bring a quieter</text><text x="24.0" y="2443.6" font-family="Arial" font-size="16" fill="#292B25">finish to the bedside. Pair it with a</text><text x="24.0" y="2464.08" font-family="Arial" font-size="16" fill="#292B25">shade that keeps the light comfortable</text><text x="24.0" y="2484.56" font-family="Arial" font-size="16" fill="#292B25">for winding down.</text></g><g id="find-2"><title>Under-Bed Storage Bags</title><rect x="24" y="2591.04" width="342" height="1" fill="#D6D1C5"/><text x="24.0" y="2632.04" font-family="Arial" font-size="11" fill="#46513E">02  /  STORAGE</text><text x="24.0" y="2675.04" font-family="Georgia" font-size="32" fill="#292B25">Under-Bed Storage</text><text x="24.0" y="2716.0" font-family="Georgia" font-size="32" fill="#292B25">Bags</text><rect x="24.0" y="2776.96" width="342" height="290" fill="#F0EDE6"/><g transform="translate(24.0 2793.71) scale(0.855)" stroke="#857963" stroke-width="2" stroke-linejoin="round"><path d="M80 130L123 95H290L328 130V220H80Z" fill="#C2B7A4"/><path d="M80 130H328M125 170H280M170 190H230"/></g><rect x="49.0" y="3091.96" width="292" height="52" fill="#46513E"/><text x="195.0" y="3123.96" text-anchor="middle" font-family="Arial" font-size="12" fill="#FFFFFF">CHECK PRICE AT AMAZON ↗</text><text x="24.0" y="3176.96" font-family="Arial" font-size="11" fill="#46513E">WHY WE LIKE IT</text><text x="24.0" y="3208.96" font-family="Arial" font-size="16" fill="#292B25">Make use of the space below the bed</text><text x="24.0" y="3229.44" font-family="Arial" font-size="16" fill="#292B25">for seasonal textiles. Measure the</text><text x="24.0" y="3249.92" font-family="Arial" font-size="16" fill="#292B25">clearance first and choose a format</text><text x="24.0" y="3270.4" font-family="Arial" font-size="16" fill="#292B25">that is easy to pull out.</text></g><g id="find-3"><title>Textured Throw Blanket</title><rect x="24" y="3376.88" width="342" height="1" fill="#D6D1C5"/><text x="24.0" y="3417.88" font-family="Arial" font-size="11" fill="#46513E">03  /  BEDDING &amp; TEXTILES</text><text x="24.0" y="3460.88" font-family="Georgia" font-size="32" fill="#292B25">Textured Throw</text><text x="24.0" y="3501.84" font-family="Georgia" font-size="32" fill="#292B25">Blanket</text><rect x="24.0" y="3562.8" width="342" height="290" fill="#F0EDE6"/><g transform="translate(24.0 3579.55) scale(0.855)" stroke="#857963" stroke-width="2" stroke-linejoin="round"><path d="M105 70H280L302 224H126Z" fill="#C7B49B"/><path d="M130 90L150 214M165 90L185 214M200 90L220 214M235 90L255 214M128 226L130 243M155 226L157 243M185 226L187 243M215 226L217 243M245 226L247 243M275 226L277 243"/></g><rect x="49.0" y="3877.8" width="292" height="52" fill="#46513E"/><text x="195.0" y="3909.8" text-anchor="middle" font-family="Arial" font-size="12" fill="#FFFFFF">CHECK PRICE AT AMAZON ↗</text><text x="24.0" y="3962.8" font-family="Arial" font-size="11" fill="#46513E">WHY WE LIKE IT</text><text x="24.0" y="3994.8" font-family="Arial" font-size="16" fill="#292B25">A textured throw adds another layer to</text><text x="24.0" y="4015.28" font-family="Arial" font-size="16" fill="#292B25">simple bedding. Choose a weight that</text><text x="24.0" y="4035.76" font-family="Arial" font-size="16" fill="#292B25">suits your climate and a color that</text><text x="24.0" y="4056.2400000000002" font-family="Arial" font-size="16" fill="#292B25">connects with the rest of the room.</text></g><g id="find-4"><title>Bedside Organizer</title><rect x="24" y="4162.72" width="342" height="1" fill="#D6D1C5"/><text x="24.0" y="4203.72" font-family="Arial" font-size="11" fill="#46513E">04  /  STORAGE</text><text x="24.0" y="4246.72" font-family="Georgia" font-size="32" fill="#292B25">Bedside Organizer</text><rect x="24.0" y="4307.68" width="342" height="290" fill="#F0EDE6"/><g transform="translate(24.0 4324.43) scale(0.855)" stroke="#857963" stroke-width="2" stroke-linejoin="round"><path d="M91 170L130 125H277L314 170V213H91Z" fill="#BDA786"/><path d="M91 170H314M163 170V210M245 170V210M145 124V94H182V124M220 123V82H257V123"/></g><rect x="49.0" y="4622.68" width="292" height="52" fill="#46513E"/><text x="195.0" y="4654.68" text-anchor="middle" font-family="Arial" font-size="12" fill="#FFFFFF">CHECK PRICE AT AMAZON ↗</text><text x="24.0" y="4707.68" font-family="Arial" font-size="11" fill="#46513E">WHY WE LIKE IT</text><text x="24.0" y="4739.68" font-family="Arial" font-size="16" fill="#292B25">Keep small everyday objects together</text><text x="24.0" y="4760.16" font-family="Arial" font-size="16" fill="#292B25">with a dedicated bedside organizer.</text><text x="24.0" y="4780.64" font-family="Arial" font-size="16" fill="#292B25">Choose compartments around the things</text><text x="24.0" y="4801.12" font-family="Arial" font-size="16" fill="#292B25">you actually reach for each evening.</text></g><g id="find-5"><title>Plug-In Wall Sconce</title><rect x="24" y="4907.6" width="342" height="1" fill="#D6D1C5"/><text x="24.0" y="4948.6" font-family="Arial" font-size="11" fill="#46513E">05  /  LIGHTING</text><text x="24.0" y="4991.6" font-family="Georgia" font-size="32" fill="#292B25">Plug-In Wall Sconce</text><rect x="24.0" y="5052.56" width="342" height="290" fill="#F0EDE6"/><g transform="translate(24.0 5069.31) scale(0.855)" stroke="#857963" stroke-width="2" stroke-linejoin="round"><path d="M125 86H143V186H125ZM143 110H222V80" fill="#B3A181"/><path d="M193 80H252L276 151H169Z" fill="#DED5C3"/><path d="M135 188V245"/></g><rect x="49.0" y="5367.56" width="292" height="52" fill="#46513E"/><text x="195.0" y="5399.56" text-anchor="middle" font-family="Arial" font-size="12" fill="#FFFFFF">CHECK PRICE AT AMAZON ↗</text><text x="24.0" y="5452.56" font-family="Arial" font-size="11" fill="#46513E">WHY WE LIKE IT</text><text x="24.0" y="5484.56" font-family="Arial" font-size="16" fill="#292B25">A wall-mounted light can free up the</text><text x="24.0" y="5505.04" font-family="Arial" font-size="16" fill="#292B25">bedside surface. Plan the cable route</text><text x="24.0" y="5525.52" font-family="Arial" font-size="16" fill="#292B25">and mounting position before choosing</text><text x="24.0" y="5546.0" font-family="Arial" font-size="16" fill="#292B25">a fixture.</text></g><rect x="24" y="5652.4800000000005" width="342" height="220" fill="#EEEADF"/><text x="48" y="5692.4800000000005" font-family="Arial" font-size="11" fill="#46513E">BEDROOM TIP</text><text x="48" y="5733.4800000000005" font-family="Georgia" font-size="20" fill="#292B25">Choose accessories that</text><text x="48" y="5759.080000000001" font-family="Georgia" font-size="20" fill="#292B25">improve comfort, storage or</text><text x="48" y="5784.68" font-family="Georgia" font-size="20" fill="#292B25">visual cohesion. Leave room</text><text x="48" y="5810.280000000001" font-family="Georgia" font-size="20" fill="#292B25">for the things you already</text><text x="48" y="5835.88" font-family="Georgia" font-size="20" fill="#292B25">love.</text><g id="find-6"><title>Upholstered Storage Bench</title><rect x="24" y="5957.4800000000005" width="342" height="1" fill="#D6D1C5"/><text x="24.0" y="5998.4800000000005" font-family="Arial" font-size="11" fill="#46513E">06  /  STORAGE</text><text x="24.0" y="6041.4800000000005" font-family="Georgia" font-size="32" fill="#292B25">Upholstered Storage</text><text x="24.0" y="6082.4400000000005" font-family="Georgia" font-size="32" fill="#292B25">Bench</text><rect x="24.0" y="6143.400000000001" width="342" height="290" fill="#F0EDE6"/><g transform="translate(24.0 6160.150000000001) scale(0.855)" stroke="#857963" stroke-width="2" stroke-linejoin="round"><rect x="75" y="122" width="250" height="72" rx="15" fill="#CCBCA5"/><path d="M89 196V241M311 196V241M77 153H324"/></g><rect x="49.0" y="6458.400000000001" width="292" height="52" fill="#46513E"/><text x="195.0" y="6490.400000000001" text-anchor="middle" font-family="Arial" font-size="12" fill="#FFFFFF">CHECK PRICE AT AMAZON ↗</text><text x="24.0" y="6543.400000000001" font-family="Arial" font-size="11" fill="#46513E">WHY WE LIKE IT</text><text x="24.0" y="6575.400000000001" font-family="Arial" font-size="16" fill="#292B25">A bench can provide a place to sit and</text><text x="24.0" y="6595.88" font-family="Arial" font-size="16" fill="#292B25">a home for spare textiles. Leave</text><text x="24.0" y="6616.360000000001" font-family="Arial" font-size="16" fill="#292B25">enough room to walk comfortably around</text><text x="24.0" y="6636.84" font-family="Arial" font-size="16" fill="#292B25">the bed.</text></g><g id="find-7"><title>Neutral Bedding Set</title><rect x="24" y="6743.320000000001" width="342" height="1" fill="#D6D1C5"/><text x="24.0" y="6784.320000000001" font-family="Arial" font-size="11" fill="#46513E">07  /  BEDDING &amp; TEXTILES</text><text x="24.0" y="6827.320000000001" font-family="Georgia" font-size="32" fill="#292B25">Neutral Bedding Set</text><rect x="24.0" y="6888.280000000001" width="342" height="290" fill="#F0EDE6"/><g transform="translate(24.0 6905.030000000001) scale(0.855)" stroke="#857963" stroke-width="2" stroke-linejoin="round"><rect x="93" y="50" width="214" height="204" rx="12" fill="#DED5C3"/><rect x="107" y="68" width="84" height="48" rx="8" fill="#F8F5EE"/><rect x="209" y="68" width="84" height="48" rx="8" fill="#F8F5EE"/><path d="M93 129H307M93 218H307"/></g><rect x="49.0" y="7203.280000000001" width="292" height="52" fill="#46513E"/><text x="195.0" y="7235.280000000001" text-anchor="middle" font-family="Arial" font-size="12" fill="#FFFFFF">CHECK PRICE AT AMAZON ↗</text><text x="24.0" y="7288.280000000001" font-family="Arial" font-size="11" fill="#46513E">WHY WE LIKE IT</text><text x="24.0" y="7320.280000000001" font-family="Arial" font-size="16" fill="#292B25">A coordinated bedding set gives the</text><text x="24.0" y="7340.76" font-family="Arial" font-size="16" fill="#292B25">room a calm foundation. Confirm the</text><text x="24.0" y="7361.240000000001" font-family="Arial" font-size="16" fill="#292B25">material, mattress fit and included</text><text x="24.0" y="7381.72" font-family="Arial" font-size="16" fill="#292B25">pieces before ordering.</text></g><g id="find-8"><title>Soft Area Rug</title><rect x="24" y="7488.200000000001" width="342" height="1" fill="#D6D1C5"/><text x="24.0" y="7529.200000000001" font-family="Arial" font-size="11" fill="#46513E">08  /  BEDDING &amp; TEXTILES</text><text x="24.0" y="7572.200000000001" font-family="Georgia" font-size="32" fill="#292B25">Soft Area Rug</text><rect x="24.0" y="7633.160000000001" width="342" height="290" fill="#F0EDE6"/><g transform="translate(24.0 7649.910000000001) scale(0.855)" stroke="#857963" stroke-width="2" stroke-linejoin="round"><path d="M109 63H291L328 243H73Z" fill="#C9BBA4"/><path d="M122 83H278L306 223H94ZM185 115L222 154L193 197L158 157Z" fill="none"/></g><rect x="49.0" y="7948.160000000001" width="292" height="52" fill="#46513E"/><text x="195.0" y="7980.160000000001" text-anchor="middle" font-family="Arial" font-size="12" fill="#FFFFFF">CHECK PRICE AT AMAZON ↗</text><text x="24.0" y="8033.160000000001" font-family="Arial" font-size="11" fill="#46513E">WHY WE LIKE IT</text><text x="24.0" y="8065.160000000001" font-family="Arial" font-size="16" fill="#292B25">A rug helps connect the bed with</text><text x="24.0" y="8085.64" font-family="Arial" font-size="16" fill="#292B25">surrounding furniture. Mark out its</text><text x="24.0" y="8106.120000000001" font-family="Arial" font-size="16" fill="#292B25">dimensions before buying so the</text><text x="24.0" y="8126.6" font-family="Arial" font-size="16" fill="#292B25">placement works on both sides.</text></g><g id="find-9"><title>Arched Mirror</title><rect x="24" y="8233.080000000002" width="342" height="1" fill="#D6D1C5"/><text x="24.0" y="8274.080000000002" font-family="Arial" font-size="11" fill="#46513E">09  /  DECOR</text><text x="24.0" y="8317.080000000002" font-family="Georgia" font-size="32" fill="#292B25">Arched Mirror</text><rect x="24.0" y="8378.04" width="342" height="290" fill="#F0EDE6"/><g transform="translate(24.0 8394.79) scale(0.855)" stroke="#857963" stroke-width="2" stroke-linejoin="round"><path d="M128 252V105A72 72 0 0 1 144 0V252Z" fill="#C9D0CA"/><path d="M140 250V107A60 60 0 0 1 120 0V250M159 194L231 95" fill="none"/></g><rect x="49.0" y="8693.04" width="292" height="52" fill="#46513E"/><text x="195.0" y="8725.04" text-anchor="middle" font-family="Arial" font-size="12" fill="#FFFFFF">CHECK PRICE AT AMAZON ↗</text><text x="24.0" y="8778.04" font-family="Arial" font-size="11" fill="#46513E">WHY WE LIKE IT</text><text x="24.0" y="8810.04" font-family="Arial" font-size="16" fill="#292B25">A mirror can brighten the feel of a</text><text x="24.0" y="8830.52" font-family="Arial" font-size="16" fill="#292B25">corner and provide a useful dressing</text><text x="24.0" y="8851.0" font-family="Arial" font-size="16" fill="#292B25">spot. Check its weight and the</text><text x="24.0" y="8871.480000000001" font-family="Arial" font-size="16" fill="#292B25">recommended securing method.</text></g><g id="find-10"><title>Framed Wall Art</title><rect x="24" y="8977.960000000001" width="342" height="1" fill="#D6D1C5"/><text x="24.0" y="9018.960000000001" font-family="Arial" font-size="11" fill="#46513E">10  /  DECOR</text><text x="24.0" y="9061.960000000001" font-family="Georgia" font-size="32" fill="#292B25">Framed Wall Art</text><rect x="24.0" y="9122.92" width="342" height="290" fill="#F0EDE6"/><g transform="translate(24.0 9139.67) scale(0.855)" stroke="#857963" stroke-width="2" stroke-linejoin="round"><rect x="109" y="46" width="182" height="208" fill="#AD9576"/><rect x="122" y="59" width="156" height="182" fill="#E4DAC6"/><circle cx="200" cy="129" r="39" fill="#A5AD98"/><path d="M146 215L194 140L256 215Z" fill="#C4AE8F"/></g><rect x="49.0" y="9437.92" width="292" height="52" fill="#46513E"/><text x="195.0" y="9469.92" text-anchor="middle" font-family="Arial" font-size="12" fill="#FFFFFF">CHECK PRICE AT AMAZON ↗</text><text x="24.0" y="9522.92" font-family="Arial" font-size="11" fill="#46513E">WHY WE LIKE IT</text><text x="24.0" y="9554.92" font-family="Arial" font-size="16" fill="#292B25">Choose a quiet composition that works</text><text x="24.0" y="9575.4" font-family="Arial" font-size="16" fill="#292B25">with your room palette. One well-</text><text x="24.0" y="9595.88" font-family="Arial" font-size="16" fill="#292B25">scaled piece can be enough above a</text><text x="24.0" y="9616.36" font-family="Arial" font-size="16" fill="#292B25">dresser or beside the bed.</text></g><g id="find-11"><title>Sculptural Vase</title><rect x="24" y="9722.84" width="342" height="1" fill="#D6D1C5"/><text x="24.0" y="9763.84" font-family="Arial" font-size="11" fill="#46513E">11  /  DECOR</text><text x="24.0" y="9806.84" font-family="Georgia" font-size="32" fill="#292B25">Sculptural Vase</text><rect x="24.0" y="9867.8" width="342" height="290" fill="#F0EDE6"/><g transform="translate(24.0 9884.55) scale(0.855)" stroke="#857963" stroke-width="2" stroke-linejoin="round"><path d="M174 83H226L218 126Q284 208 235 246H165Q116 208 182 126Z" fill="#BEAB91"/><path d="M199 83V38M199 64L172 39M199 49L223 26"/></g><rect x="49.0" y="10182.8" width="292" height="52" fill="#46513E"/><text x="195.0" y="10214.8" text-anchor="middle" font-family="Arial" font-size="12" fill="#FFFFFF">CHECK PRICE AT AMAZON ↗</text><text x="24.0" y="10267.8" font-family="Arial" font-size="11" fill="#46513E">WHY WE LIKE IT</text><text x="24.0" y="10299.8" font-family="Arial" font-size="16" fill="#292B25">A simple vase brings shape to a</text><text x="24.0" y="10320.279999999999" font-family="Arial" font-size="16" fill="#292B25">bedside table or dresser. Leave room</text><text x="24.0" y="10340.759999999998" font-family="Arial" font-size="16" fill="#292B25">around it so the arrangement feels</text><text x="24.0" y="10361.24" font-family="Arial" font-size="16" fill="#292B25">considered and easy to maintain.</text></g><g id="find-12"><title>Wood Bedside Table</title><rect x="24" y="10467.72" width="342" height="1" fill="#D6D1C5"/><text x="24.0" y="10508.72" font-family="Arial" font-size="11" fill="#46513E">12  /  USEFUL EXTRAS</text><text x="24.0" y="10551.72" font-family="Georgia" font-size="32" fill="#292B25">Wood Bedside Table</text><rect x="24.0" y="10612.679999999998" width="342" height="290" fill="#F0EDE6"/><g transform="translate(24.0 10629.429999999998) scale(0.855)" stroke="#857963" stroke-width="2" stroke-linejoin="round"><rect x="112" y="91" width="176" height="128" fill="#BB9F7D"/><path d="M112 152H288M127 219V258M273 219V258M188 123H211M188 184H211"/></g><rect x="49.0" y="10927.679999999998" width="292" height="52" fill="#46513E"/><text x="195.0" y="10959.679999999998" text-anchor="middle" font-family="Arial" font-size="12" fill="#FFFFFF">CHECK PRICE AT AMAZON ↗</text><text x="24.0" y="11012.679999999998" font-family="Arial" font-size="11" fill="#46513E">WHY WE LIKE IT</text><text x="24.0" y="11044.679999999998" font-family="Arial" font-size="16" fill="#292B25">A practical bedside table puts a</text><text x="24.0" y="11065.159999999998" font-family="Arial" font-size="16" fill="#292B25">useful surface within reach. Compare</text><text x="24.0" y="11085.639999999998" font-family="Arial" font-size="16" fill="#292B25">its height with the mattress and</text><text x="24.0" y="11106.119999999999" font-family="Arial" font-size="16" fill="#292B25">consider how much storage you need.</text></g><g id="find-13"><title>Lidded Woven Basket</title><rect x="24" y="11212.599999999999" width="342" height="1" fill="#D6D1C5"/><text x="24.0" y="11253.599999999999" font-family="Arial" font-size="11" fill="#46513E">13  /  USEFUL EXTRAS</text><text x="24.0" y="11296.599999999999" font-family="Georgia" font-size="32" fill="#292B25">Lidded Woven Basket</text><rect x="24.0" y="11357.559999999998" width="342" height="290" fill="#F0EDE6"/><g transform="translate(24.0 11374.309999999998) scale(0.855)" stroke="#857963" stroke-width="2" stroke-linejoin="round"><path d="M113 113H287L269 237H131Z" fill="#C5AD87"/><path d="M107 101H293V117H107ZM142 139H276M137 167H274M131 198H268M149 121L161 233M186 121L190 233M226 121L219 233M257 121L246 233M177 99V83H225V99" fill="none"/></g><rect x="49.0" y="11672.559999999998" width="292" height="52" fill="#46513E"/><text x="195.0" y="11704.559999999998" text-anchor="middle" font-family="Arial" font-size="12" fill="#FFFFFF">CHECK PRICE AT AMAZON ↗</text><text x="24.0" y="11757.559999999998" font-family="Arial" font-size="11" fill="#46513E">WHY WE LIKE IT</text><text x="24.0" y="11789.559999999998" font-family="Arial" font-size="16" fill="#292B25">A lidded basket gives loose textiles a</text><text x="24.0" y="11810.039999999997" font-family="Arial" font-size="16" fill="#292B25">defined place. Check the interior</text><text x="24.0" y="11830.519999999997" font-family="Arial" font-size="16" fill="#292B25">dimensions against the things you plan</text><text x="24.0" y="11850.999999999998" font-family="Arial" font-size="16" fill="#292B25">to store.</text></g><g id="find-14"><title>Room-Darkening Curtains</title><rect x="24" y="11957.479999999998" width="342" height="1" fill="#D6D1C5"/><text x="24.0" y="11998.479999999998" font-family="Arial" font-size="11" fill="#46513E">14  /  USEFUL EXTRAS</text><text x="24.0" y="12041.479999999998" font-family="Georgia" font-size="32" fill="#292B25">Room-Darkening</text><text x="24.0" y="12082.439999999997" font-family="Georgia" font-size="32" fill="#292B25">Curtains</text><rect x="24.0" y="12143.399999999998" width="342" height="290" fill="#F0EDE6"/><g transform="translate(24.0 12160.149999999998) scale(0.855)" stroke="#857963" stroke-width="2" stroke-linejoin="round"><path d="M95 54H305M109 61H192V247H109ZM209 61H292V247H209Z" fill="#CEC4B2"/><path d="M129 62V246M154 62V246M177 62V246M229 62V246M253 62V246M277 62V246"/></g><rect x="49.0" y="12458.399999999998" width="292" height="52" fill="#46513E"/><text x="195.0" y="12490.399999999998" text-anchor="middle" font-family="Arial" font-size="12" fill="#FFFFFF">CHECK PRICE AT AMAZON ↗</text><text x="24.0" y="12543.399999999998" font-family="Arial" font-size="11" fill="#46513E">WHY WE LIKE IT</text><text x="24.0" y="12575.399999999998" font-family="Arial" font-size="16" fill="#292B25">Curtains can soften a room and help</text><text x="24.0" y="12595.879999999997" font-family="Arial" font-size="16" fill="#292B25">manage incoming light. Check the</text><text x="24.0" y="12616.359999999997" font-family="Arial" font-size="16" fill="#292B25">fabric description, panel width and</text><text x="24.0" y="12636.839999999998" font-family="Arial" font-size="16" fill="#292B25">drop against your windows.</text></g><g id="find-15"><title>Decorative Cushion Cover</title><rect x="24" y="12743.319999999998" width="342" height="1" fill="#D6D1C5"/><text x="24.0" y="12784.319999999998" font-family="Arial" font-size="11" fill="#46513E">15  /  USEFUL EXTRAS</text><text x="24.0" y="12827.319999999998" font-family="Georgia" font-size="32" fill="#292B25">Decorative Cushion</text><text x="24.0" y="12868.279999999997" font-family="Georgia" font-size="32" fill="#292B25">Cover</text><rect x="24.0" y="12929.239999999998" width="342" height="290" fill="#F0EDE6"/><g transform="translate(24.0 12945.989999999998) scale(0.855)" stroke="#857963" stroke-width="2" stroke-linejoin="round"><path d="M116 73Q200 90 284 73Q267 150 284 227Q200 210 116 227Q133 150 116 73Z" fill="#ADA98F"/><path d="M136 94Q200 106 264 94M136 206Q200 193 264 206" fill="none"/></g><rect x="49.0" y="13244.239999999998" width="292" height="52" fill="#46513E"/><text x="195.0" y="13276.239999999998" text-anchor="middle" font-family="Arial" font-size="12" fill="#FFFFFF">CHECK PRICE AT AMAZON ↗</text><text x="24.0" y="13329.239999999998" font-family="Arial" font-size="11" fill="#46513E">WHY WE LIKE IT</text><text x="24.0" y="13361.239999999998" font-family="Arial" font-size="16" fill="#292B25">A cushion cover is a small way to</text><text x="24.0" y="13381.719999999998" font-family="Arial" font-size="16" fill="#292B25">introduce a new texture or color.</text><text x="24.0" y="13402.199999999997" font-family="Arial" font-size="16" fill="#292B25">Coordinate it with existing bedding</text><text x="24.0" y="13422.679999999998" font-family="Arial" font-size="16" fill="#292B25">and check the insert size.</text></g><text x="24" y="13529.159999999998" font-family="Georgia" font-size="30" fill="#292B25">More Bedroom Finds</text><g id="related-finds"><g data-related-card="true"><rect x="24" y="13592.559999999998" width="342" height="1" fill="#D6D1C5"/><image x="24" y="13610.559999999998" width="120" height="105" preserveAspectRatio="xMidYMid slice" href="../assets/0f6bd4b6c657c8df.jpg"/><text x="160" y="13623.559999999998" font-family="Arial" font-size="10" fill="#46513E">SHOPPING FINDS</text><text x="160" y="13653.559999999998" font-family="Georgia" font-size="21" fill="#292B25">Small Bedroom Finds</text></g><g data-related-card="true"><rect x="24" y="13737.559999999998" width="342" height="1" fill="#D6D1C5"/><image x="24" y="13755.559999999998" width="120" height="105" preserveAspectRatio="xMidYMid slice" href="../assets/5201c28de7b1f750.jpg"/><text x="160" y="13768.559999999998" font-family="Arial" font-size="10" fill="#46513E">SHOPPING FINDS</text><text x="160" y="13798.559999999998" font-family="Georgia" font-size="21" fill="#292B25">Affordable Bedroom</text><text x="160" y="13825.439999999997" font-family="Georgia" font-size="21" fill="#292B25">Decor Finds</text></g><g data-related-card="true"><rect x="24" y="13882.559999999998" width="342" height="1" fill="#D6D1C5"/><image x="24" y="13900.559999999998" width="120" height="105" preserveAspectRatio="xMidYMid slice" href="../assets/0f6bd4b6c657c8df.jpg"/><text x="160" y="13913.559999999998" font-family="Arial" font-size="10" fill="#46513E">SHOPPING FINDS</text><text x="160" y="13943.559999999998" font-family="Georgia" font-size="21" fill="#292B25">Bedroom</text><text x="160" y="13970.439999999997" font-family="Georgia" font-size="21" fill="#292B25">Organization Finds</text></g><g data-related-card="true"><rect x="24" y="14027.559999999998" width="342" height="1" fill="#D6D1C5"/><image x="24" y="14045.559999999998" width="120" height="105" preserveAspectRatio="xMidYMid slice" href="../assets/5201c28de7b1f750.jpg"/><text x="160" y="14058.559999999998" font-family="Arial" font-size="10" fill="#46513E">SHOPPING FINDS</text><text x="160" y="14088.559999999998" font-family="Georgia" font-size="21" fill="#292B25">Cozy Bedroom Finds</text></g><g data-related-card="true"><rect x="24" y="14172.559999999998" width="342" height="1" fill="#D6D1C5"/><image x="24" y="14190.559999999998" width="120" height="105" preserveAspectRatio="xMidYMid slice" href="../assets/0f6bd4b6c657c8df.jpg"/><text x="160" y="14203.559999999998" font-family="Arial" font-size="10" fill="#46513E">SHOPPING FINDS</text><text x="160" y="14233.559999999998" font-family="Georgia" font-size="21" fill="#292B25">Bedside Lighting</text><text x="160" y="14260.439999999997" font-family="Georgia" font-size="21" fill="#292B25">Finds</text></g><g data-related-card="true"><rect x="24" y="14317.559999999998" width="342" height="1" fill="#D6D1C5"/><image x="24" y="14335.559999999998" width="120" height="105" preserveAspectRatio="xMidYMid slice" href="../assets/5201c28de7b1f750.jpg"/><text x="160" y="14348.559999999998" font-family="Arial" font-size="10" fill="#46513E">SHOPPING FINDS</text><text x="160" y="14378.559999999998" font-family="Georgia" font-size="21" fill="#292B25">Warm Neutral</text><text x="160" y="14405.439999999997" font-family="Georgia" font-size="21" fill="#292B25">Bedroom Finds</text></g><g data-related-card="true"><rect x="24" y="14462.559999999998" width="342" height="1" fill="#D6D1C5"/><image x="24" y="14480.559999999998" width="120" height="105" preserveAspectRatio="xMidYMid slice" href="../assets/0f6bd4b6c657c8df.jpg"/><text x="160" y="14493.559999999998" font-family="Arial" font-size="10" fill="#46513E">SHOPPING FINDS</text><text x="160" y="14523.559999999998" font-family="Georgia" font-size="21" fill="#292B25">Small-Space Storage</text><text x="160" y="14550.439999999997" font-family="Georgia" font-size="21" fill="#292B25">Finds</text></g><g data-related-card="true"><rect x="24" y="14607.559999999998" width="342" height="1" fill="#D6D1C5"/><image x="24" y="14625.559999999998" width="120" height="105" preserveAspectRatio="xMidYMid slice" href="../assets/5201c28de7b1f750.jpg"/><text x="160" y="14638.559999999998" font-family="Arial" font-size="10" fill="#46513E">SHOPPING FINDS</text><text x="160" y="14668.559999999998" font-family="Georgia" font-size="21" fill="#292B25">Bedding Finds Worth</text><text x="160" y="14695.439999999997" font-family="Georgia" font-size="21" fill="#292B25">Discovering</text></g><g data-related-card="true"><rect x="24" y="14752.559999999998" width="342" height="1" fill="#D6D1C5"/><image x="24" y="14770.559999999998" width="120" height="105" preserveAspectRatio="xMidYMid slice" href="../assets/0f6bd4b6c657c8df.jpg"/><text x="160" y="14783.559999999998" font-family="Arial" font-size="10" fill="#46513E">SHOPPING FINDS</text><text x="160" y="14813.559999999998" font-family="Georgia" font-size="21" fill="#292B25">Bedroom Rug Finds</text></g><g data-related-card="true"><rect x="24" y="14897.559999999998" width="342" height="1" fill="#D6D1C5"/><image x="24" y="14915.559999999998" width="120" height="105" preserveAspectRatio="xMidYMid slice" href="../assets/5201c28de7b1f750.jpg"/><text x="160" y="14928.559999999998" font-family="Arial" font-size="10" fill="#46513E">SHOPPING FINDS</text><text x="160" y="14958.559999999998" font-family="Georgia" font-size="21" fill="#292B25">Bedroom Wall Decor</text><text x="160" y="14985.439999999997" font-family="Georgia" font-size="21" fill="#292B25">Finds</text></g><g data-related-card="true"><rect x="24" y="15042.559999999998" width="342" height="1" fill="#D6D1C5"/><image x="24" y="15060.559999999998" width="120" height="105" preserveAspectRatio="xMidYMid slice" href="../assets/0f6bd4b6c657c8df.jpg"/><text x="160" y="15073.559999999998" font-family="Arial" font-size="10" fill="#46513E">SHOPPING FINDS</text><text x="160" y="15103.559999999998" font-family="Georgia" font-size="21" fill="#292B25">Nightstand Finds</text></g><g data-related-card="true"><rect x="24" y="15187.559999999998" width="342" height="1" fill="#D6D1C5"/><image x="24" y="15205.559999999998" width="120" height="105" preserveAspectRatio="xMidYMid slice" href="../assets/5201c28de7b1f750.jpg"/><text x="160" y="15218.559999999998" font-family="Arial" font-size="10" fill="#46513E">SHOPPING FINDS</text><text x="160" y="15248.559999999998" font-family="Georgia" font-size="21" fill="#292B25">Bedroom Curtain</text><text x="160" y="15275.439999999997" font-family="Georgia" font-size="21" fill="#292B25">Finds</text></g></g><rect x="24" y="15397.559999999998" width="342" height="265" fill="#EEEADF"/><text x="48" y="15438.559999999998" font-family="Arial" font-size="11" fill="#46513E">NEED HELP CHOOSING?</text><text x="48" y="15484.559999999998" font-family="Georgia" font-size="23" fill="#292B25">7 Best Bedside Lamps for</text><text x="48" y="15513.999999999998" font-family="Georgia" font-size="23" fill="#292B25">Beautiful Bedrooms →</text><text x="48" y="15600.559999999998" font-family="Georgia" font-size="19" fill="#292B25">How to Choose Bedroom Lighting</text><text x="48" y="15624.879999999997" font-family="Georgia" font-size="19" fill="#292B25">→</text><text x="24" y="15752.559999999998" font-family="Georgia" font-size="30" fill="#292B25">More Bedroom</text><text x="24" y="15790.959999999997" font-family="Georgia" font-size="30" fill="#292B25">Inspiration</text><g id="related-inspiration"><g data-related-card="true"><rect x="24" y="15854.359999999997" width="342" height="1" fill="#D6D1C5"/><image x="24" y="15872.359999999997" width="120" height="105" preserveAspectRatio="xMidYMid slice" href="../assets/0f6bd4b6c657c8df.jpg"/><text x="160" y="15885.359999999997" font-family="Arial" font-size="10" fill="#46513E">BEDROOM</text><text x="160" y="15915.359999999997" font-family="Georgia" font-size="21" fill="#292B25">15 Modern Luxury</text><text x="160" y="15942.239999999996" font-family="Georgia" font-size="21" fill="#292B25">Bedroom Ideas</text></g><g data-related-card="true"><rect x="24" y="15999.359999999997" width="342" height="1" fill="#D6D1C5"/><image x="24" y="16017.359999999997" width="120" height="105" preserveAspectRatio="xMidYMid slice" href="../assets/5201c28de7b1f750.jpg"/><text x="160" y="16030.359999999997" font-family="Arial" font-size="10" fill="#46513E">BEDROOM</text><text x="160" y="16060.359999999997" font-family="Georgia" font-size="21" fill="#292B25">15 Small Bedroom</text><text x="160" y="16087.239999999996" font-family="Georgia" font-size="21" fill="#292B25">Ideas</text></g><g data-related-card="true"><rect x="24" y="16144.359999999997" width="342" height="1" fill="#D6D1C5"/><image x="24" y="16162.359999999997" width="120" height="105" preserveAspectRatio="xMidYMid slice" href="../assets/0f6bd4b6c657c8df.jpg"/><text x="160" y="16175.359999999997" font-family="Arial" font-size="10" fill="#46513E">BEDROOM</text><text x="160" y="16205.359999999997" font-family="Georgia" font-size="21" fill="#292B25">12 Warm Neutral</text><text x="160" y="16232.239999999996" font-family="Georgia" font-size="21" fill="#292B25">Bedroom Ideas</text></g><g data-related-card="true"><rect x="24" y="16289.359999999997" width="342" height="1" fill="#D6D1C5"/><image x="24" y="16307.359999999997" width="120" height="105" preserveAspectRatio="xMidYMid slice" href="../assets/5201c28de7b1f750.jpg"/><text x="160" y="16320.359999999997" font-family="Arial" font-size="10" fill="#46513E">BEDROOM</text><text x="160" y="16350.359999999997" font-family="Georgia" font-size="21" fill="#292B25">Minimalist Bedroom</text><text x="160" y="16377.239999999996" font-family="Georgia" font-size="21" fill="#292B25">Ideas</text></g><g data-related-card="true"><rect x="24" y="16434.359999999997" width="342" height="1" fill="#D6D1C5"/><image x="24" y="16452.359999999997" width="120" height="105" preserveAspectRatio="xMidYMid slice" href="../assets/0f6bd4b6c657c8df.jpg"/><text x="160" y="16465.359999999997" font-family="Arial" font-size="10" fill="#46513E">BEDROOM</text><text x="160" y="16495.359999999997" font-family="Georgia" font-size="21" fill="#292B25">Bedroom Lighting</text><text x="160" y="16522.239999999998" font-family="Georgia" font-size="21" fill="#292B25">Ideas</text></g><g data-related-card="true"><rect x="24" y="16579.359999999997" width="342" height="1" fill="#D6D1C5"/><image x="24" y="16597.359999999997" width="120" height="105" preserveAspectRatio="xMidYMid slice" href="../assets/5201c28de7b1f750.jpg"/><text x="160" y="16610.359999999997" font-family="Arial" font-size="10" fill="#46513E">BEDROOM</text><text x="160" y="16640.359999999997" font-family="Georgia" font-size="21" fill="#292B25">Small Bedroom</text><text x="160" y="16667.239999999998" font-family="Georgia" font-size="21" fill="#292B25">Layout Ideas</text></g><g data-related-card="true"><rect x="24" y="16724.359999999997" width="342" height="1" fill="#D6D1C5"/><image x="24" y="16742.359999999997" width="120" height="105" preserveAspectRatio="xMidYMid slice" href="../assets/0f6bd4b6c657c8df.jpg"/><text x="160" y="16755.359999999997" font-family="Arial" font-size="10" fill="#46513E">BEDROOM</text><text x="160" y="16785.359999999997" font-family="Georgia" font-size="21" fill="#292B25">Cozy Bedroom</text><text x="160" y="16812.239999999998" font-family="Georgia" font-size="21" fill="#292B25">Decorating Ideas</text></g><g data-related-card="true"><rect x="24" y="16869.359999999997" width="342" height="1" fill="#D6D1C5"/><image x="24" y="16887.359999999997" width="120" height="105" preserveAspectRatio="xMidYMid slice" href="../assets/5201c28de7b1f750.jpg"/><text x="160" y="16900.359999999997" font-family="Arial" font-size="10" fill="#46513E">BEDROOM</text><text x="160" y="16930.359999999997" font-family="Georgia" font-size="21" fill="#292B25">Bedroom Storage</text><text x="160" y="16957.239999999998" font-family="Georgia" font-size="21" fill="#292B25">Ideas</text></g></g><rect x="0" y="17079.359999999997" width="390" height="390" fill="#46513E"/><text x="195.0" y="17147.359999999997" text-anchor="middle" font-family="Georgia" font-size="32" fill="#FFFFFF">Get Our Latest Home</text><text x="195.0" y="17186.399999999998" text-anchor="middle" font-family="Georgia" font-size="32" fill="#FFFFFF">Finds</text><text x="195.0" y="17243.359999999997" text-anchor="middle" font-family="Arial" font-size="15" fill="#FFFFFF">Beautiful interiors, useful products and</text><text x="195.0" y="17261.659999999996" text-anchor="middle" font-family="Arial" font-size="15" fill="#FFFFFF">organization ideas.</text><rect x="24" y="17322.359999999997" width="342" height="48" fill="#FAF8F3"/><text x="40" y="17352.359999999997" font-family="Arial" font-size="15" fill="#292B25">Email address</text><rect x="24" y="17385.359999999997" width="342" height="48" fill="#DED5C4"/><text x="195.0" y="17415.359999999997" text-anchor="middle" font-family="Arial" font-size="13" fill="#292B25">SIGN UP →</text><rect x="0" y="17469.359999999997" width="390" height="840" fill="#EEEADF"/><text x="24" y="17549.359999999997" font-family="Georgia" font-size="36" fill="#292B25">home &amp; living</text><text x="24" y="17589.359999999997" font-family="Arial" font-size="14" fill="#292B25">Ideas for a home that feels like you.</text><text x="24" y="17654.359999999997" font-family="Arial" font-size="11" fill="#46513E">EXPLORE</text><text x="24" y="17693.359999999997" font-family="Arial" font-size="14" fill="#292B25">Interior Design</text><text x="24" y="17727.359999999997" font-family="Arial" font-size="14" fill="#292B25">Rooms</text><text x="24" y="17761.359999999997" font-family="Arial" font-size="14" fill="#292B25">Home Organization</text><text x="24" y="17795.359999999997" font-family="Arial" font-size="14" fill="#292B25">Shopping</text><text x="215" y="17654.359999999997" font-family="Arial" font-size="11" fill="#46513E">ROOMS</text><text x="215" y="17693.359999999997" font-family="Arial" font-size="14" fill="#292B25">Bedroom</text><text x="215" y="17727.359999999997" font-family="Arial" font-size="14" fill="#292B25">Living Room</text><text x="215" y="17761.359999999997" font-family="Arial" font-size="14" fill="#292B25">Kitchen</text><text x="215" y="17795.359999999997" font-family="Arial" font-size="14" fill="#292B25">Bathroom</text><text x="24" y="17857.359999999997" font-family="Arial" font-size="11" fill="#46513E">SHOPPING</text><text x="24" y="17896.359999999997" font-family="Arial" font-size="14" fill="#292B25">Best Products</text><text x="24" y="17930.359999999997" font-family="Arial" font-size="14" fill="#292B25">Buying Guides</text><text x="24" y="17964.359999999997" font-family="Arial" font-size="14" fill="#292B25">Shopping Finds</text><text x="24" y="17998.359999999997" font-family="Arial" font-size="14" fill="#292B25">Shop the Look</text><text x="24" y="18048.359999999997" font-family="Arial" font-size="12" fill="#292B25">PINTEREST ↗     INSTAGRAM ↗</text><rect x="24" y="18079.359999999997" width="342" height="1" fill="#D6D1C5"/><text x="24" y="18113.359999999997" font-family="Arial" font-size="13" fill="#292B25">About · Contact · Editorial Policy</text><text x="24" y="18149.359999999997" font-family="Arial" font-size="13" fill="#292B25">Affiliate Disclosure · Privacy · Terms</text><text x="24" y="18194.359999999997" font-family="Arial" font-size="12" fill="#292B25">Some shopping links may earn us a commission. Read</text><text x="24" y="18209.719999999998" font-family="Arial" font-size="12" fill="#292B25">our affiliate disclosure.</text><text x="24" y="18269.359999999997" font-family="Arial" font-size="12" fill="#292B25">© 2026 Home &amp; Living.</text></svg>