<svg xmlns="http://www.w3.org/2000/svg" width="1440" height="15902" viewBox="0 0 1440 15902"><title>Wireframe 7 — Shop the Look — desktop</title><rect width="1440" height="15902" fill="#FAF8F3"/><text x="80" y="69.0" font-family="Arial" font-size="10" fill="#292B25">IDEAS FOR A HOME</text><text x="80" y="84.0" font-family="Arial" font-size="10" fill="#292B25">THAT FEELS LIKE YOU</text><text x="720.0" y="91.0" text-anchor="middle" font-family="Georgia" font-size="50" fill="#292B25">home &amp; living</text><text x="1080" y="78.0" font-family="Arial" font-size="10" fill="#292B25">THE WEEKLY EDIT   ↗</text><text x="465" y="158.0" font-family="Arial" font-size="10" fill="#292B25">INTERIOR DESIGN</text><text x="585" y="158.0" font-family="Arial" font-size="10" fill="#292B25">ROOMS</text><text x="655" y="158.0" font-family="Arial" font-size="10" fill="#292B25">HOME ORGANIZATION</text><text x="805" y="158.0" font-family="Arial" font-size="10" fill="#292B25">SHOPPING</text><text x="1150" y="158.0" font-family="Arial" font-size="10" fill="#292B25">SEARCH</text><text x="160" y="228.0" font-family="Arial" font-size="11" fill="#65685D">Home › Shopping › Shop the Look</text><text x="720.0" y="293.0" text-anchor="middle" font-family="Arial" font-size="12" fill="#46513E">SHOP THE LOOK</text><text x="720.0" y="369.0" text-anchor="middle" font-family="Georgia" font-size="70" fill="#292B25">Modern Luxury Bedroom</text><text x="720.0" y="472.4" text-anchor="middle" font-family="Arial" font-size="20" fill="#292B25">Recreate this warm, sophisticated bedroom with layered neutrals, natural wood</text><text x="720.0" y="496.79999999999995" text-anchor="middle" font-family="Arial" font-size="20" fill="#292B25">and soft lighting.</text><text x="720.0" y="541.1999999999999" text-anchor="middle" font-family="Arial" font-size="12" fill="#65685D">By Author Name · Updated Date</text><rect x="340.0" y="589.1999999999999" width="760" height="1" fill="#D6D1C5"/><text x="340.0" y="619.1999999999999" font-family="Arial" font-size="11" fill="#46513E">AFFILIATE DISCLOSURE</text><text x="340.0" y="648.1999999999999" font-family="Arial" font-size="13" fill="#292B25">We may earn a commission when you purchase through links on this page, at no additional cost to you.</text><image x="80" y="693.8399999999999" width="1280" height="760" preserveAspectRatio="xMidYMid slice" href="../assets/5201c28de7b1f750.jpg"/><text x="160" y="1485.84" font-family="Arial" font-size="10" fill="#65685D">Image credit · illustrative room inspiration</text><text x="160" y="1560.84" font-family="Georgia" font-size="41" fill="#292B25">Quick Shop</text><a href="#item-1"><rect x="160" y="1641.32" width="262" height="195" fill="#F0EDE6"/><g transform="translate(161.0 1641.32) scale(0.65)" stroke="#857963" stroke-width="2"><rect x="95" y="57" width="210" height="154" rx="24" fill="#C5B69F"/><path d="M95 139H305L335 229H65Z" fill="#DED5C3"/><rect x="65" y="224" width="270" height="23" rx="6" fill="#B5A78F"/><path d="M83 247V266M317 247V266"/></g><text x="160" y="1868.32" font-family="Georgia" font-size="20" fill="#292B25">Bed ↓</text></a><a href="#item-2"><rect x="446" y="1641.32" width="262" height="195" fill="#F0EDE6"/><g transform="translate(447.0 1641.32) scale(0.65)" stroke="#857963" stroke-width="2" stroke-linejoin="round"><rect x="112" y="91" width="176" height="128" fill="#BB9F7D"/><path d="M112 152H288M127 219V258M273 219V258M188 123H211M188 184H211"/></g><text x="446" y="1868.32" font-family="Georgia" font-size="20" fill="#292B25">Nightstand ↓</text></a><a href="#item-3"><rect x="732" y="1641.32" width="262" height="195" fill="#F0EDE6"/><g transform="translate(733.0 1641.32) scale(0.65)" stroke="#857963" stroke-width="2" stroke-linejoin="round"><path d="M130 135L153 50H247L270 135Z" fill="#DDD2BC"/><path d="M179 160Q160 212 175 239H225Q240 212 221 160Z" fill="#B6A388"/><path d="M200 135V160M165 243H235"/></g><text x="732" y="1868.32" font-family="Georgia" font-size="20" fill="#292B25">Lamp ↓</text></a><a href="#item-5"><rect x="1018" y="1641.32" width="262" height="195" fill="#F0EDE6"/><g transform="translate(1019.0 1641.32) scale(0.65)" stroke="#857963" stroke-width="2" stroke-linejoin="round"><path d="M109 63H291L328 243H73Z" fill="#C9BBA4"/><path d="M122 83H278L306 223H94ZM185 115L222 154L193 197L158 157Z" fill="none"/></g><text x="1018" y="1868.32" font-family="Georgia" font-size="20" fill="#292B25">Rug ↓</text></a><rect x="160" y="1936.32" width="1120" height="150" fill="#EEEADF"/><text x="184" y="1973.32" font-family="Arial" font-size="11" fill="#46513E">GET A SIMILAR LOOK</text><text x="184" y="2011.32" font-family="Arial" font-size="16" fill="#292B25">These are illustrative alternatives, not verified exact products from the photograph. Look for a similar silhouette,</text><text x="184" y="2031.8" font-family="Arial" font-size="16" fill="#292B25">material and color to recreate the overall feeling.</text><g id="item-1"><title>Upholstered Platform Bed</title><rect x="340.0" y="2171.3199999999997" width="760" height="1" fill="#D6D1C5"/><text x="340.0" y="2209.3199999999997" font-family="Arial" font-size="11" fill="#46513E">GET A SIMILAR LOOK</text><text x="340.0" y="2252.3199999999997" font-family="Georgia" font-size="43" fill="#292B25">Upholstered Platform Bed</text><rect x="340.0" y="2327.3599999999997" width="760" height="400" fill="#F0EDE6"/><g transform="translate(453.33333333333337 2327.3599999999997) scale(1.3333333333333333)" stroke="#857963" stroke-width="2"><rect x="95" y="57" width="210" height="154" rx="24" fill="#C5B69F"/><path d="M95 139H305L335 229H65Z" fill="#DED5C3"/><rect x="65" y="224" width="270" height="23" rx="6" fill="#B5A78F"/><path d="M83 247V266M317 247V266"/></g><rect x="574.0" y="2752.3599999999997" width="292" height="50" fill="#46513E"/><text x="720.0" y="2783.3599999999997" text-anchor="middle" font-family="Arial" font-size="12" fill="#FFFFFF">CHECK PRICE AT AMAZON ↗</text><text x="340.0" y="2838.3599999999997" font-family="Arial" font-size="11" fill="#46513E">WHY IT WORKS</text><text x="340.0" y="2869.3599999999997" font-family="Arial" font-size="18" fill="#292B25">The softly upholstered frame brings calm visual weight to the room and gives</text><text x="340.0" y="2892.3999999999996" font-family="Arial" font-size="18" fill="#292B25">the bedding a quiet foundation.</text><text x="340.0" y="2939.4399999999996" font-family="Arial" font-size="11" fill="#46513E">LOOK FOR / DETAILS</text><text x="340.0" y="2970.4399999999996" font-family="Arial" font-size="18" fill="#292B25">Warm neutral upholstery · Low profile · Simple silhouette</text><text x="340.0" y="3017.4799999999996" font-family="Arial" font-size="12" fill="#65685D">Specifications and retailer listing to be verified.</text></g><g id="item-2"><title>Walnut Nightstand</title><rect x="340.0" y="3112.4799999999996" width="760" height="1" fill="#D6D1C5"/><text x="340.0" y="3150.4799999999996" font-family="Arial" font-size="11" fill="#46513E">GET A SIMILAR LOOK</text><text x="340.0" y="3193.4799999999996" font-family="Georgia" font-size="43" fill="#292B25">Walnut Nightstand</text><rect x="340.0" y="3268.5199999999995" width="760" height="400" fill="#F0EDE6"/><g transform="translate(453.33333333333337 3268.5199999999995) scale(1.3333333333333333)" stroke="#857963" stroke-width="2" stroke-linejoin="round"><rect x="112" y="91" width="176" height="128" fill="#BB9F7D"/><path d="M112 152H288M127 219V258M273 219V258M188 123H211M188 184H211"/></g><rect x="574.0" y="3693.5199999999995" width="292" height="50" fill="#46513E"/><text x="720.0" y="3724.5199999999995" text-anchor="middle" font-family="Arial" font-size="12" fill="#FFFFFF">CHECK PRICE AT AMAZON ↗</text><text x="340.0" y="3779.5199999999995" font-family="Arial" font-size="11" fill="#46513E">WHY IT WORKS</text><text x="340.0" y="3810.5199999999995" font-family="Arial" font-size="18" fill="#292B25">Warm wood breaks up pale upholstery and introduces natural contrast beside</text><text x="340.0" y="3833.5599999999995" font-family="Arial" font-size="18" fill="#292B25">the bed.</text><text x="340.0" y="3880.5999999999995" font-family="Arial" font-size="11" fill="#46513E">LOOK FOR / DETAILS</text><text x="340.0" y="3911.5999999999995" font-family="Arial" font-size="18" fill="#292B25">Warm wood tone · Useful surface · Clean lines</text><text x="340.0" y="3958.6399999999994" font-family="Arial" font-size="12" fill="#65685D">Specifications and retailer listing to be verified.</text></g><g id="item-3"><title>Sculptural Bedside Lamp</title><rect x="340.0" y="4053.6399999999994" width="760" height="1" fill="#D6D1C5"/><text x="340.0" y="4091.6399999999994" font-family="Arial" font-size="11" fill="#46513E">GET A SIMILAR LOOK</text><text x="340.0" y="4134.639999999999" font-family="Georgia" font-size="43" fill="#292B25">Sculptural Bedside Lamp</text><rect x="340.0" y="4209.679999999999" width="760" height="400" fill="#F0EDE6"/><g transform="translate(453.33333333333337 4209.679999999999) scale(1.3333333333333333)" stroke="#857963" stroke-width="2" stroke-linejoin="round"><path d="M130 135L153 50H247L270 135Z" fill="#DDD2BC"/><path d="M179 160Q160 212 175 239H225Q240 212 221 160Z" fill="#B6A388"/><path d="M200 135V160M165 243H235"/></g><rect x="574.0" y="4634.679999999999" width="292" height="50" fill="#46513E"/><text x="720.0" y="4665.679999999999" text-anchor="middle" font-family="Arial" font-size="12" fill="#FFFFFF">CHECK PRICE AT AMAZON ↗</text><text x="340.0" y="4720.679999999999" font-family="Arial" font-size="11" fill="#46513E">WHY IT WORKS</text><text x="340.0" y="4751.679999999999" font-family="Arial" font-size="18" fill="#292B25">A sculptural base and soft shade add interest without competing with the</text><text x="340.0" y="4774.719999999999" font-family="Arial" font-size="18" fill="#292B25">bed.</text><text x="340.0" y="4821.759999999999" font-family="Arial" font-size="11" fill="#46513E">LOOK FOR / DETAILS</text><text x="340.0" y="4852.759999999999" font-family="Arial" font-size="18" fill="#292B25">Neutral shade · Tactile base · Accessible switch</text><text x="340.0" y="4899.799999999999" font-family="Arial" font-size="12" fill="#65685D">Specifications and retailer listing to be verified.</text></g><g id="item-4"><title>Simple Ceiling Light</title><rect x="340.0" y="4994.799999999999" width="760" height="1" fill="#D6D1C5"/><text x="340.0" y="5032.799999999999" font-family="Arial" font-size="11" fill="#46513E">GET A SIMILAR LOOK</text><text x="340.0" y="5075.799999999999" font-family="Georgia" font-size="43" fill="#292B25">Simple Ceiling Light</text><rect x="340.0" y="5150.839999999999" width="760" height="400" fill="#F0EDE6"/><g transform="translate(453.33333333333337 5150.839999999999) scale(1.3333333333333333)" stroke="#857963" stroke-width="3"><path d="M200 35V107"/><path d="M110 190Q115 100 200 100Q285 100 290 190Z" fill="#CDBFA6"/><path d="M110 190Q200 217 290 190" fill="#E8DFCD"/></g><rect x="574.0" y="5575.839999999999" width="292" height="50" fill="#46513E"/><text x="720.0" y="5606.839999999999" text-anchor="middle" font-family="Arial" font-size="12" fill="#FFFFFF">CHECK PRICE AT AMAZON ↗</text><text x="340.0" y="5661.839999999999" font-family="Arial" font-size="11" fill="#46513E">WHY IT WORKS</text><text x="340.0" y="5692.839999999999" font-family="Arial" font-size="18" fill="#292B25">A simple ceiling fixture supports general lighting while leaving the</text><text x="340.0" y="5715.879999999999" font-family="Arial" font-size="18" fill="#292B25">furniture as the strongest visual element.</text><text x="340.0" y="5762.919999999999" font-family="Arial" font-size="11" fill="#46513E">LOOK FOR / DETAILS</text><text x="340.0" y="5793.919999999999" font-family="Arial" font-size="18" fill="#292B25">Simple form · Appropriate scale · Suitable light output</text><text x="340.0" y="5840.959999999999" font-family="Arial" font-size="12" fill="#65685D">Specifications and retailer listing to be verified.</text></g><g id="item-5"><title>Neutral Area Rug</title><rect x="340.0" y="5935.959999999999" width="760" height="1" fill="#D6D1C5"/><text x="340.0" y="5973.959999999999" font-family="Arial" font-size="11" fill="#46513E">GET A SIMILAR LOOK</text><text x="340.0" y="6016.959999999999" font-family="Georgia" font-size="43" fill="#292B25">Neutral Area Rug</text><rect x="340.0" y="6091.999999999999" width="760" height="400" fill="#F0EDE6"/><g transform="translate(453.33333333333337 6091.999999999999) scale(1.3333333333333333)" stroke="#857963" stroke-width="2" stroke-linejoin="round"><path d="M109 63H291L328 243H73Z" fill="#C9BBA4"/><path d="M122 83H278L306 223H94ZM185 115L222 154L193 197L158 157Z" fill="none"/></g><rect x="574.0" y="6516.999999999999" width="292" height="50" fill="#46513E"/><text x="720.0" y="6547.999999999999" text-anchor="middle" font-family="Arial" font-size="12" fill="#FFFFFF">CHECK PRICE AT AMAZON ↗</text><text x="340.0" y="6602.999999999999" font-family="Arial" font-size="11" fill="#46513E">WHY IT WORKS</text><text x="340.0" y="6633.999999999999" font-family="Arial" font-size="18" fill="#292B25">A quiet rug anchors the bed and connects the furniture while adding softness</text><text x="340.0" y="6657.039999999999" font-family="Arial" font-size="18" fill="#292B25">underfoot.</text><text x="340.0" y="6704.079999999999" font-family="Arial" font-size="11" fill="#46513E">LOOK FOR / DETAILS</text><text x="340.0" y="6735.079999999999" font-family="Arial" font-size="18" fill="#292B25">Generous size · Subtle texture · Warm neutral tone</text><text x="340.0" y="6782.119999999999" font-family="Arial" font-size="12" fill="#65685D">Specifications and retailer listing to be verified.</text></g><g id="item-6"><title>Tonal Bedding</title><rect x="340.0" y="6877.119999999999" width="760" height="1" fill="#D6D1C5"/><text x="340.0" y="6915.119999999999" font-family="Arial" font-size="11" fill="#46513E">GET A SIMILAR LOOK</text><text x="340.0" y="6958.119999999999" font-family="Georgia" font-size="43" fill="#292B25">Tonal Bedding</text><rect x="340.0" y="7033.159999999999" width="760" height="400" fill="#F0EDE6"/><g transform="translate(453.33333333333337 7033.159999999999) scale(1.3333333333333333)" stroke="#857963" stroke-width="2" stroke-linejoin="round"><rect x="93" y="50" width="214" height="204" rx="12" fill="#DED5C3"/><rect x="107" y="68" width="84" height="48" rx="8" fill="#F8F5EE"/><rect x="209" y="68" width="84" height="48" rx="8" fill="#F8F5EE"/><path d="M93 129H307M93 218H307"/></g><rect x="574.0" y="7458.159999999999" width="292" height="50" fill="#46513E"/><text x="720.0" y="7489.159999999999" text-anchor="middle" font-family="Arial" font-size="12" fill="#FFFFFF">CHECK PRICE AT AMAZON ↗</text><text x="340.0" y="7544.159999999999" font-family="Arial" font-size="11" fill="#46513E">WHY IT WORKS</text><text x="340.0" y="7575.159999999999" font-family="Arial" font-size="18" fill="#292B25">Layers of related neutrals give the bed depth without relying on a perfectly</text><text x="340.0" y="7598.199999999999" font-family="Arial" font-size="18" fill="#292B25">matched set.</text><text x="340.0" y="7645.239999999999" font-family="Arial" font-size="11" fill="#46513E">LOOK FOR / DETAILS</text><text x="340.0" y="7676.239999999999" font-family="Arial" font-size="18" fill="#292B25">Related neutral shades · Comfortable fabric · Correct fit</text><text x="340.0" y="7723.279999999999" font-family="Arial" font-size="12" fill="#65685D">Specifications and retailer listing to be verified.</text></g><g id="item-7"><title>Textured Throw</title><rect x="340.0" y="7818.279999999999" width="760" height="1" fill="#D6D1C5"/><text x="340.0" y="7856.279999999999" font-family="Arial" font-size="11" fill="#46513E">GET A SIMILAR LOOK</text><text x="340.0" y="7899.279999999999" font-family="Georgia" font-size="43" fill="#292B25">Textured Throw</text><rect x="340.0" y="7974.319999999999" width="760" height="400" fill="#F0EDE6"/><g transform="translate(453.33333333333337 7974.319999999999) scale(1.3333333333333333)" stroke="#857963" stroke-width="2" stroke-linejoin="round"><path d="M105 70H280L302 224H126Z" fill="#C7B49B"/><path d="M130 90L150 214M165 90L185 214M200 90L220 214M235 90L255 214M128 226L130 243M155 226L157 243M185 226L187 243M215 226L217 243M245 226L247 243M275 226L277 243"/></g><rect x="574.0" y="8399.32" width="292" height="50" fill="#46513E"/><text x="720.0" y="8430.32" text-anchor="middle" font-family="Arial" font-size="12" fill="#FFFFFF">CHECK PRICE AT AMAZON ↗</text><text x="340.0" y="8485.32" font-family="Arial" font-size="11" fill="#46513E">WHY IT WORKS</text><text x="340.0" y="8516.32" font-family="Arial" font-size="18" fill="#292B25">A throw in a slightly deeper neutral introduces texture and keeps the pale</text><text x="340.0" y="8539.36" font-family="Arial" font-size="18" fill="#292B25">bedding from feeling flat.</text><text x="340.0" y="8586.4" font-family="Arial" font-size="11" fill="#46513E">LOOK FOR / DETAILS</text><text x="340.0" y="8617.4" font-family="Arial" font-size="18" fill="#292B25">Deeper neutral · Soft texture · Suitable weight</text><text x="340.0" y="8664.44" font-family="Arial" font-size="12" fill="#65685D">Specifications and retailer listing to be verified.</text></g><g id="item-8"><title>Arched Mirror</title><rect x="340.0" y="8759.44" width="760" height="1" fill="#D6D1C5"/><text x="340.0" y="8797.44" font-family="Arial" font-size="11" fill="#46513E">GET A SIMILAR LOOK</text><text x="340.0" y="8840.44" font-family="Georgia" font-size="43" fill="#292B25">Arched Mirror</text><rect x="340.0" y="8915.480000000001" width="760" height="400" fill="#F0EDE6"/><g transform="translate(453.33333333333337 8915.480000000001) scale(1.3333333333333333)" stroke="#857963" stroke-width="2" stroke-linejoin="round"><path d="M128 252V105A72 72 0 0 1 144 0V252Z" fill="#C9D0CA"/><path d="M140 250V107A60 60 0 0 1 120 0V250M159 194L231 95" fill="none"/></g><rect x="574.0" y="9340.480000000001" width="292" height="50" fill="#46513E"/><text x="720.0" y="9371.480000000001" text-anchor="middle" font-family="Arial" font-size="12" fill="#FFFFFF">CHECK PRICE AT AMAZON ↗</text><text x="340.0" y="9426.480000000001" font-family="Arial" font-size="11" fill="#46513E">WHY IT WORKS</text><text x="340.0" y="9457.480000000001" font-family="Arial" font-size="18" fill="#292B25">A simple mirror adds shape and provides a practical dressing spot while</text><text x="340.0" y="9480.520000000002" font-family="Arial" font-size="18" fill="#292B25">keeping the palette restrained.</text><text x="340.0" y="9527.560000000001" font-family="Arial" font-size="11" fill="#46513E">LOOK FOR / DETAILS</text><text x="340.0" y="9558.560000000001" font-family="Arial" font-size="18" fill="#292B25">Simple frame · Appropriate scale · Secure placement</text><text x="340.0" y="9605.600000000002" font-family="Arial" font-size="12" fill="#65685D">Specifications and retailer listing to be verified.</text></g><g id="item-9"><title>Quiet Abstract Art</title><rect x="340.0" y="9700.600000000002" width="760" height="1" fill="#D6D1C5"/><text x="340.0" y="9738.600000000002" font-family="Arial" font-size="11" fill="#46513E">GET A SIMILAR LOOK</text><text x="340.0" y="9781.600000000002" font-family="Georgia" font-size="43" fill="#292B25">Quiet Abstract Art</text><rect x="340.0" y="9856.640000000003" width="760" height="400" fill="#F0EDE6"/><g transform="translate(453.33333333333337 9856.640000000003) scale(1.3333333333333333)" stroke="#857963" stroke-width="2" stroke-linejoin="round"><rect x="109" y="46" width="182" height="208" fill="#AD9576"/><rect x="122" y="59" width="156" height="182" fill="#E4DAC6"/><circle cx="200" cy="129" r="39" fill="#A5AD98"/><path d="M146 215L194 140L256 215Z" fill="#C4AE8F"/></g><rect x="574.0" y="10281.640000000003" width="292" height="50" fill="#46513E"/><text x="720.0" y="10312.640000000003" text-anchor="middle" font-family="Arial" font-size="12" fill="#FFFFFF">CHECK PRICE AT AMAZON ↗</text><text x="340.0" y="10367.640000000003" font-family="Arial" font-size="11" fill="#46513E">WHY IT WORKS</text><text x="340.0" y="10398.640000000003" font-family="Arial" font-size="18" fill="#292B25">A restrained composition repeats the room palette and gives the walls a</text><text x="340.0" y="10421.680000000004" font-family="Arial" font-size="18" fill="#292B25">considered focal point.</text><text x="340.0" y="10468.720000000003" font-family="Arial" font-size="11" fill="#46513E">LOOK FOR / DETAILS</text><text x="340.0" y="10499.720000000003" font-family="Arial" font-size="18" fill="#292B25">Muted colors · Generous scale · Simple frame</text><text x="340.0" y="10546.760000000004" font-family="Arial" font-size="12" fill="#65685D">Specifications and retailer listing to be verified.</text></g><g id="item-10"><title>Sculptural Vase</title><rect x="340.0" y="10641.760000000004" width="760" height="1" fill="#D6D1C5"/><text x="340.0" y="10679.760000000004" font-family="Arial" font-size="11" fill="#46513E">GET A SIMILAR LOOK</text><text x="340.0" y="10722.760000000004" font-family="Georgia" font-size="43" fill="#292B25">Sculptural Vase</text><rect x="340.0" y="10797.800000000005" width="760" height="400" fill="#F0EDE6"/><g transform="translate(453.33333333333337 10797.800000000005) scale(1.3333333333333333)" stroke="#857963" stroke-width="2" stroke-linejoin="round"><path d="M174 83H226L218 126Q284 208 235 246H165Q116 208 182 126Z" fill="#BEAB91"/><path d="M199 83V38M199 64L172 39M199 49L223 26"/></g><rect x="574.0" y="11222.800000000005" width="292" height="50" fill="#46513E"/><text x="720.0" y="11253.800000000005" text-anchor="middle" font-family="Arial" font-size="12" fill="#FFFFFF">CHECK PRICE AT AMAZON ↗</text><text x="340.0" y="11308.800000000005" font-family="Arial" font-size="11" fill="#46513E">WHY IT WORKS</text><text x="340.0" y="11339.800000000005" font-family="Arial" font-size="18" fill="#292B25">A single sculptural object can finish a dresser without crowding the</text><text x="340.0" y="11362.840000000006" font-family="Arial" font-size="18" fill="#292B25">surface.</text><text x="340.0" y="11409.880000000005" font-family="Arial" font-size="11" fill="#46513E">LOOK FOR / DETAILS</text><text x="340.0" y="11440.880000000005" font-family="Arial" font-size="18" fill="#292B25">Quiet shape · Tactile finish · Space around it</text><text x="340.0" y="11487.920000000006" font-family="Arial" font-size="12" fill="#65685D">Specifications and retailer listing to be verified.</text></g><g id="item-11"><title>Textured Cushion Cover</title><rect x="340.0" y="11582.920000000006" width="760" height="1" fill="#D6D1C5"/><text x="340.0" y="11620.920000000006" font-family="Arial" font-size="11" fill="#46513E">GET A SIMILAR LOOK</text><text x="340.0" y="11663.920000000006" font-family="Georgia" font-size="43" fill="#292B25">Textured Cushion Cover</text><rect x="340.0" y="11738.960000000006" width="760" height="400" fill="#F0EDE6"/><g transform="translate(453.33333333333337 11738.960000000006) scale(1.3333333333333333)" stroke="#857963" stroke-width="2" stroke-linejoin="round"><path d="M116 73Q200 90 284 73Q267 150 284 227Q200 210 116 227Q133 150 116 73Z" fill="#ADA98F"/><path d="M136 94Q200 106 264 94M136 206Q200 193 264 206" fill="none"/></g><rect x="574.0" y="12163.960000000006" width="292" height="50" fill="#46513E"/><text x="720.0" y="12194.960000000006" text-anchor="middle" font-family="Arial" font-size="12" fill="#FFFFFF">CHECK PRICE AT AMAZON ↗</text><text x="340.0" y="12249.960000000006" font-family="Arial" font-size="11" fill="#46513E">WHY IT WORKS</text><text x="340.0" y="12280.960000000006" font-family="Arial" font-size="18" fill="#292B25">A cushion in a deeper tone adds definition to the layered bedding without</text><text x="340.0" y="12304.000000000007" font-family="Arial" font-size="18" fill="#292B25">introducing a competing color.</text><text x="340.0" y="12351.040000000006" font-family="Arial" font-size="11" fill="#46513E">LOOK FOR / DETAILS</text><text x="340.0" y="12382.040000000006" font-family="Arial" font-size="18" fill="#292B25">Related color · Contrasting texture · Correct insert size</text><text x="340.0" y="12429.080000000007" font-family="Arial" font-size="12" fill="#65685D">Specifications and retailer listing to be verified.</text></g><text x="160" y="12524.080000000007" font-family="Georgia" font-size="41" fill="#292B25">See the Design Ideas</text><image x="160" y="12604.560000000007" width="1120" height="520" preserveAspectRatio="xMidYMid slice" href="../assets/5201c28de7b1f750.jpg"/><text x="160" y="13184.560000000007" font-family="Georgia" font-size="45" fill="#292B25">15 Modern Luxury Bedroom Ideas</text><text x="340.0" y="13264.160000000007" font-family="Arial" font-size="18" fill="#292B25">Explore more ways to create a refined modern bedroom.</text><text x="160" y="13311.200000000008" font-family="Arial" font-size="12" fill="#46513E">READ THE ARTICLE →</text><text x="160" y="13406.200000000008" font-family="Georgia" font-size="39" fill="#292B25">More Looks to Shop</text><g id="related-looks"><g data-related-card="true"><image x="160" y="13481.120000000008" width="262" height="180" preserveAspectRatio="xMidYMid slice" href="../assets/0f6bd4b6c657c8df.jpg"/><text x="160" y="13686.120000000008" font-family="Arial" font-size="11" fill="#46513E">SHOP THE LOOK</text><text x="160" y="13718.120000000008" font-family="Georgia" font-size="22" fill="#292B25">Warm Neutral Bedroom</text></g><g data-related-card="true"><image x="446" y="13481.120000000008" width="262" height="180" preserveAspectRatio="xMidYMid slice" href="../assets/5201c28de7b1f750.jpg"/><text x="446" y="13686.120000000008" font-family="Arial" font-size="11" fill="#46513E">SHOP THE LOOK</text><text x="446" y="13718.120000000008" font-family="Georgia" font-size="22" fill="#292B25">Organic Modern Bedroom</text></g><g data-related-card="true"><image x="732" y="13481.120000000008" width="262" height="180" preserveAspectRatio="xMidYMid slice" href="../assets/0f6bd4b6c657c8df.jpg"/><text x="732" y="13686.120000000008" font-family="Arial" font-size="11" fill="#46513E">SHOP THE LOOK</text><text x="732" y="13718.120000000008" font-family="Georgia" font-size="22" fill="#292B25">Small Modern Bedroom</text></g><g data-related-card="true"><image x="1018" y="13481.120000000008" width="262" height="180" preserveAspectRatio="xMidYMid slice" href="../assets/5201c28de7b1f750.jpg"/><text x="1018" y="13686.120000000008" font-family="Arial" font-size="11" fill="#46513E">SHOP THE LOOK</text><text x="1018" y="13718.120000000008" font-family="Georgia" font-size="22" fill="#292B25">Minimalist Bedroom</text></g><g data-related-card="true"><image x="160" y="13799.280000000008" width="262" height="180" preserveAspectRatio="xMidYMid slice" href="../assets/0f6bd4b6c657c8df.jpg"/><text x="160" y="14004.280000000008" font-family="Arial" font-size="11" fill="#46513E">SHOP THE LOOK</text><text x="160" y="14036.280000000008" font-family="Georgia" font-size="22" fill="#292B25">Cozy Layered Bedroom</text></g><g data-related-card="true"><image x="446" y="13799.280000000008" width="262" height="180" preserveAspectRatio="xMidYMid slice" href="../assets/5201c28de7b1f750.jpg"/><text x="446" y="14004.280000000008" font-family="Arial" font-size="11" fill="#46513E">SHOP THE LOOK</text><text x="446" y="14036.280000000008" font-family="Georgia" font-size="22" fill="#292B25">Soft Scandinavian</text><text x="446" y="14064.440000000008" font-family="Georgia" font-size="22" fill="#292B25">Bedroom</text></g><g data-related-card="true"><image x="732" y="13799.280000000008" width="262" height="180" preserveAspectRatio="xMidYMid slice" href="../assets/0f6bd4b6c657c8df.jpg"/><text x="732" y="14004.280000000008" font-family="Arial" font-size="11" fill="#46513E">SHOP THE LOOK</text><text x="732" y="14036.280000000008" font-family="Georgia" font-size="22" fill="#292B25">Modern Luxury Bedroom</text></g><g data-related-card="true"><image x="1018" y="13799.280000000008" width="262" height="180" preserveAspectRatio="xMidYMid slice" href="../assets/5201c28de7b1f750.jpg"/><text x="1018" y="14004.280000000008" font-family="Arial" font-size="11" fill="#46513E">SHOP THE LOOK</text><text x="1018" y="14036.280000000008" font-family="Georgia" font-size="22" fill="#292B25">Earth-Tone Bedroom</text></g></g><text x="160" y="14210.600000000008" font-family="Georgia" font-size="41" fill="#292B25">Plan Your Room</text><g id="related-planning"><g data-planning-link="true"><rect x="160" y="14291.080000000007" width="1120" height="1" fill="#D6D1C5"/><text x="160" y="14328.080000000007" font-family="Georgia" font-size="29" fill="#292B25">How to Choose Bedroom Lighting →</text></g><g data-planning-link="true"><rect x="160" y="14391.200000000008" width="1120" height="1" fill="#D6D1C5"/><text x="160" y="14428.200000000008" font-family="Georgia" font-size="29" fill="#292B25">How to Choose the Right Area Rug →</text></g><g data-planning-link="true"><rect x="160" y="14491.320000000009" width="1120" height="1" fill="#D6D1C5"/><text x="160" y="14528.320000000009" font-family="Georgia" font-size="29" fill="#292B25">How to Choose Bedding →</text></g><g data-planning-link="true"><rect x="160" y="14591.44000000001" width="1120" height="1" fill="#D6D1C5"/><text x="160" y="14628.44000000001" font-family="Georgia" font-size="29" fill="#292B25">How to Choose a Bed Frame →</text></g><g data-planning-link="true"><rect x="160" y="14691.56000000001" width="1120" height="1" fill="#D6D1C5"/><text x="160" y="14728.56000000001" font-family="Georgia" font-size="29" fill="#292B25">How to Choose Nightstands →</text></g><g data-planning-link="true"><rect x="160" y="14791.680000000011" width="1120" height="1" fill="#D6D1C5"/><text x="160" y="14828.680000000011" font-family="Georgia" font-size="29" fill="#292B25">How to Choose Bedroom Curtains →</text></g><g data-planning-link="true"><rect x="160" y="14891.800000000012" width="1120" height="1" fill="#D6D1C5"/><text x="160" y="14928.800000000012" font-family="Georgia" font-size="29" fill="#292B25">How to Arrange Bedroom Furniture →</text></g><g data-planning-link="true"><rect x="160" y="14991.920000000013" width="1120" height="1" fill="#D6D1C5"/><text x="160" y="15028.920000000013" font-family="Georgia" font-size="29" fill="#292B25">How to Choose Bedroom Colors →</text></g></g><rect x="0" y="15152.040000000014" width="1440" height="295" fill="#46513E"/><text x="720.0" y="15220.040000000014" text-anchor="middle" font-family="Georgia" font-size="44" fill="#FFFFFF">Get More Rooms to Recreate</text><text x="720.0" y="15272.040000000014" text-anchor="middle" font-family="Arial" font-size="15" fill="#FFFFFF">Interior inspiration, shopping finds and practical advice.</text><rect x="320" y="15332.040000000014" width="610" height="54" fill="#FAF8F3"/><text x="340" y="15365.040000000014" font-family="Arial" font-size="16" fill="#292B25">Email address</text><rect x="948" y="15332.040000000014" width="172" height="54" fill="#DED5C4"/><text x="980" y="15365.040000000014" font-family="Arial" font-size="14" fill="#292B25">SIGN UP →</text><rect x="0" y="15447.040000000014" width="1440" height="455" fill="#EEEADF"/><text x="80" y="15527.040000000014" font-family="Georgia" font-size="43" fill="#292B25">home &amp; living</text><text x="80" y="15567.040000000014" font-family="Arial" font-size="14" fill="#292B25">Ideas for a home that feels like you.</text><text x="600" y="15523.040000000014" font-family="Arial" font-size="11" fill="#46513E">EXPLORE</text><text x="600" y="15562.040000000014" font-family="Arial" font-size="14" fill="#292B25">Interior Design</text><text x="600" y="15596.040000000014" font-family="Arial" font-size="14" fill="#292B25">Rooms</text><text x="600" y="15630.040000000014" font-family="Arial" font-size="14" fill="#292B25">Home Organization</text><text x="600" y="15664.040000000014" font-family="Arial" font-size="14" fill="#292B25">Shopping</text><text x="855" y="15523.040000000014" font-family="Arial" font-size="11" fill="#46513E">ROOMS</text><text x="855" y="15562.040000000014" font-family="Arial" font-size="14" fill="#292B25">Bedroom</text><text x="855" y="15596.040000000014" font-family="Arial" font-size="14" fill="#292B25">Living Room</text><text x="855" y="15630.040000000014" font-family="Arial" font-size="14" fill="#292B25">Kitchen</text><text x="855" y="15664.040000000014" font-family="Arial" font-size="14" fill="#292B25">Bathroom</text><text x="1110" y="15523.040000000014" font-family="Arial" font-size="11" fill="#46513E">SHOPPING</text><text x="1110" y="15562.040000000014" font-family="Arial" font-size="14" fill="#292B25">Best Products</text><text x="1110" y="15596.040000000014" font-family="Arial" font-size="14" fill="#292B25">Buying Guides</text><text x="1110" y="15630.040000000014" font-family="Arial" font-size="14" fill="#292B25">Shopping Finds</text><text x="1110" y="15664.040000000014" font-family="Arial" font-size="14" fill="#292B25">Shop the Look</text><text x="80" y="15617.040000000014" font-family="Arial" font-size="12" fill="#292B25">PINTEREST ↗     INSTAGRAM ↗</text><rect x="80" y="15727.040000000014" width="1280" height="1" fill="#D6D1C5"/><text x="80" y="15772.040000000014" font-family="Arial" font-size="14" fill="#292B25">About     Contact     Editorial Policy     Affiliate Disclosure     Privacy     Terms</text><text x="80" y="15817.040000000014" font-family="Arial" font-size="13" fill="#292B25">Some shopping links may earn us a commission. Read our affiliate disclosure.</text><text x="80" y="15861.040000000014" font-family="Arial" font-size="12" fill="#292B25">© 2026 Home &amp; Living. All rights reserved.</text></svg>