<svg xmlns="http://www.w3.org/2000/svg" width="1440" height="18074" viewBox="0 0 1440 18074"><title>Wireframe 4 — Shopping Finds Article — desktop</title><rect width="1440" height="18074" fill="#FAF8F3"/><text x="80" y="69.0" font-family="Arial" font-size="10" fill="#292B25">IDEAS FOR A HOME</text><text x="80" y="84.0" font-family="Arial" font-size="10" fill="#292B25">THAT FEELS LIKE YOU</text><text x="720.0" y="91.0" text-anchor="middle" font-family="Georgia" font-size="50" fill="#292B25">home &amp; living</text><text x="1080" y="78.0" font-family="Arial" font-size="10" fill="#292B25">THE WEEKLY EDIT   ↗</text><text x="465" y="158.0" font-family="Arial" font-size="10" fill="#292B25">INTERIOR DESIGN</text><text x="585" y="158.0" font-family="Arial" font-size="10" fill="#292B25">ROOMS</text><text x="655" y="158.0" font-family="Arial" font-size="10" fill="#292B25">HOME ORGANIZATION</text><text x="805" y="158.0" font-family="Arial" font-size="10" fill="#292B25">SHOPPING</text><text x="1150" y="158.0" font-family="Arial" font-size="10" fill="#292B25">SEARCH</text><text x="160" y="228.0" font-family="Arial" font-size="11" fill="#65685D">Home › Shopping › Shopping Finds</text><text x="720.0" y="293.0" text-anchor="middle" font-family="Arial" font-size="12" fill="#46513E">SHOPPING FINDS</text><text x="720.0" y="369.0" text-anchor="middle" font-family="Georgia" font-size="62" fill="#292B25">15 Amazon Bedroom Finds Worth</text><text x="720.0" y="444.64" text-anchor="middle" font-family="Georgia" font-size="62" fill="#292B25">Discovering</text><text x="720.0" y="538.28" text-anchor="middle" font-family="Arial" font-size="20" fill="#292B25">Stylish and practical finds for creating a more comfortable, organized and</text><text x="720.0" y="562.68" text-anchor="middle" font-family="Arial" font-size="20" fill="#292B25">beautiful bedroom.</text><text x="720.0" y="607.0799999999999" text-anchor="middle" font-family="Arial" font-size="12" fill="#65685D">By Author Name · Updated Date</text><rect x="340.0" y="655.0799999999999" width="760" height="1" fill="#D6D1C5"/><text x="340.0" y="685.0799999999999" font-family="Arial" font-size="11" fill="#46513E">AFFILIATE DISCLOSURE</text><text x="340.0" y="714.0799999999999" font-family="Arial" font-size="13" fill="#292B25">We may earn a commission when you purchase through links on this page, at no additional cost to you.</text><image x="160" y="759.7199999999999" width="1120" height="600" preserveAspectRatio="xMidYMid slice" href="../assets/0f6bd4b6c657c8df.jpg"/><text x="160" y="1391.7199999999998" font-family="Arial" font-size="10" fill="#65685D">Image credit · illustrative photography</text><text x="340.0" y="1451.7199999999998" font-family="Arial" font-size="18" fill="#292B25">Thoughtful lighting, useful storage and soft textiles can make a bedroom</text><text x="340.0" y="1474.7599999999998" font-family="Arial" font-size="18" fill="#292B25">feel more comfortable. These fifteen find concepts show how small additions</text><text x="340.0" y="1497.7999999999997" font-family="Arial" font-size="18" fill="#292B25">can support the way you use your room, while keeping the overall look calm</text><text x="340.0" y="1520.8399999999997" font-family="Arial" font-size="18" fill="#292B25">and cohesive.</text><text x="160" y="1603.8799999999999" font-family="Georgia" font-size="40" fill="#292B25">Our Finds</text><a href="#find-1"><rect x="160" y="1645.8799999999999" width="262" height="195" fill="#F0EDE6"/><g transform="translate(161.0 1645.8799999999999) scale(0.65)" stroke="#857963" stroke-width="2" stroke-linejoin="round"><path d="M130 135L153 50H247L270 135Z" fill="#DDD2BC"/><path d="M179 160Q160 212 175 239H225Q240 212 221 160Z" fill="#B6A388"/><path d="M200 135V160M165 243H235"/></g><text x="160" y="1874.8799999999999" font-family="Georgia" font-size="19" fill="#292B25">Lamp ↓</text></a><a href="#find-2"><rect x="446" y="1645.8799999999999" width="262" height="195" fill="#F0EDE6"/><g transform="translate(447.0 1645.8799999999999) scale(0.65)" stroke="#857963" stroke-width="2" stroke-linejoin="round"><path d="M80 130L123 95H290L328 130V220H80Z" fill="#C2B7A4"/><path d="M80 130H328M125 170H280M170 190H230"/></g><text x="446" y="1874.8799999999999" font-family="Georgia" font-size="19" fill="#292B25">Storage ↓</text></a><a href="#find-3"><rect x="732" y="1645.8799999999999" width="262" height="195" fill="#F0EDE6"/><g transform="translate(733.0 1645.8799999999999) scale(0.65)" stroke="#857963" stroke-width="2" stroke-linejoin="round"><path d="M105 70H280L302 224H126Z" fill="#C7B49B"/><path d="M130 90L150 214M165 90L185 214M200 90L220 214M235 90L255 214M128 226L130 243M155 226L157 243M185 226L187 243M215 226L217 243M245 226L247 243M275 226L277 243"/></g><text x="732" y="1874.8799999999999" font-family="Georgia" font-size="19" fill="#292B25">Textiles ↓</text></a><a href="#find-12"><rect x="1018" y="1645.8799999999999" width="262" height="195" fill="#F0EDE6"/><g transform="translate(1019.0 1645.8799999999999) scale(0.65)" stroke="#857963" stroke-width="2" stroke-linejoin="round"><rect x="112" y="91" width="176" height="128" fill="#BB9F7D"/><path d="M112 152H288M127 219V258M273 219V258M188 123H211M188 184H211"/></g><text x="1018" y="1874.8799999999999" font-family="Georgia" font-size="19" fill="#292B25">Nightstand ↓</text></a><g id="find-1"><title>Ceramic Bedside Lamp</title><rect x="160" y="1955.8799999999999" width="1120" height="1" fill="#D6D1C5"/><text x="340.0" y="1996.8799999999999" font-family="Arial" font-size="11" fill="#46513E">01  /  LIGHTING</text><text x="340.0" y="2039.8799999999999" font-family="Georgia" font-size="43" fill="#292B25">Ceramic Bedside Lamp</text><rect x="340.0" y="2114.92" width="760" height="420" fill="#F0EDE6"/><g transform="translate(440.0 2114.92) scale(1.4)" stroke="#857963" stroke-width="2" stroke-linejoin="round"><path d="M130 135L153 50H247L270 135Z" fill="#DDD2BC"/><path d="M179 160Q160 212 175 239H225Q240 212 221 160Z" fill="#B6A388"/><path d="M200 135V160M165 243H235"/></g><rect x="574.0" y="2559.92" width="292" height="52" fill="#46513E"/><text x="720.0" y="2591.92" text-anchor="middle" font-family="Arial" font-size="12" fill="#FFFFFF">CHECK PRICE AT AMAZON ↗</text><text x="340.0" y="2644.92" font-family="Arial" font-size="11" fill="#46513E">WHY WE LIKE IT</text><text x="340.0" y="2676.92" font-family="Arial" font-size="18" fill="#292B25">A soft silhouette can bring a quieter finish to the bedside. Pair it with a</text><text x="340.0" y="2699.96" font-family="Arial" font-size="18" fill="#292B25">shade that keeps the light comfortable for winding down.</text></g><g id="find-2"><title>Under-Bed Storage Bags</title><rect x="160" y="2809.0" width="1120" height="1" fill="#D6D1C5"/><text x="340.0" y="2850.0" font-family="Arial" font-size="11" fill="#46513E">02  /  STORAGE</text><text x="340.0" y="2893.0" font-family="Georgia" font-size="43" fill="#292B25">Under-Bed Storage Bags</text><rect x="340.0" y="2968.04" width="760" height="420" fill="#F0EDE6"/><g transform="translate(440.0 2968.04) scale(1.4)" stroke="#857963" stroke-width="2" stroke-linejoin="round"><path d="M80 130L123 95H290L328 130V220H80Z" fill="#C2B7A4"/><path d="M80 130H328M125 170H280M170 190H230"/></g><rect x="574.0" y="3413.04" width="292" height="52" fill="#46513E"/><text x="720.0" y="3445.04" text-anchor="middle" font-family="Arial" font-size="12" fill="#FFFFFF">CHECK PRICE AT AMAZON ↗</text><text x="340.0" y="3498.04" font-family="Arial" font-size="11" fill="#46513E">WHY WE LIKE IT</text><text x="340.0" y="3530.04" font-family="Arial" font-size="18" fill="#292B25">Make use of the space below the bed for seasonal textiles. Measure the</text><text x="340.0" y="3553.08" font-family="Arial" font-size="18" fill="#292B25">clearance first and choose a format that is easy to pull out.</text></g><g id="find-3"><title>Textured Throw Blanket</title><rect x="160" y="3662.12" width="1120" height="1" fill="#D6D1C5"/><text x="340.0" y="3703.12" font-family="Arial" font-size="11" fill="#46513E">03  /  BEDDING &amp; TEXTILES</text><text x="340.0" y="3746.12" font-family="Georgia" font-size="43" fill="#292B25">Textured Throw Blanket</text><rect x="340.0" y="3821.16" width="760" height="420" fill="#F0EDE6"/><g transform="translate(440.0 3821.16) scale(1.4)" stroke="#857963" stroke-width="2" stroke-linejoin="round"><path d="M105 70H280L302 224H126Z" fill="#C7B49B"/><path d="M130 90L150 214M165 90L185 214M200 90L220 214M235 90L255 214M128 226L130 243M155 226L157 243M185 226L187 243M215 226L217 243M245 226L247 243M275 226L277 243"/></g><rect x="574.0" y="4266.16" width="292" height="52" fill="#46513E"/><text x="720.0" y="4298.16" text-anchor="middle" font-family="Arial" font-size="12" fill="#FFFFFF">CHECK PRICE AT AMAZON ↗</text><text x="340.0" y="4351.16" font-family="Arial" font-size="11" fill="#46513E">WHY WE LIKE IT</text><text x="340.0" y="4383.16" font-family="Arial" font-size="18" fill="#292B25">A textured throw adds another layer to simple bedding. Choose a weight that</text><text x="340.0" y="4406.2" font-family="Arial" font-size="18" fill="#292B25">suits your climate and a color that connects with the rest of the room.</text></g><g id="find-4"><title>Bedside Organizer</title><rect x="160" y="4515.24" width="1120" height="1" fill="#D6D1C5"/><text x="340.0" y="4556.24" font-family="Arial" font-size="11" fill="#46513E">04  /  STORAGE</text><text x="340.0" y="4599.24" font-family="Georgia" font-size="43" fill="#292B25">Bedside Organizer</text><rect x="340.0" y="4674.28" width="760" height="420" fill="#F0EDE6"/><g transform="translate(440.0 4674.28) scale(1.4)" stroke="#857963" stroke-width="2" stroke-linejoin="round"><path d="M91 170L130 125H277L314 170V213H91Z" fill="#BDA786"/><path d="M91 170H314M163 170V210M245 170V210M145 124V94H182V124M220 123V82H257V123"/></g><rect x="574.0" y="5119.28" width="292" height="52" fill="#46513E"/><text x="720.0" y="5151.28" text-anchor="middle" font-family="Arial" font-size="12" fill="#FFFFFF">CHECK PRICE AT AMAZON ↗</text><text x="340.0" y="5204.28" font-family="Arial" font-size="11" fill="#46513E">WHY WE LIKE IT</text><text x="340.0" y="5236.28" font-family="Arial" font-size="18" fill="#292B25">Keep small everyday objects together with a dedicated bedside organizer.</text><text x="340.0" y="5259.32" font-family="Arial" font-size="18" fill="#292B25">Choose compartments around the things you actually reach for each evening.</text></g><g id="find-5"><title>Plug-In Wall Sconce</title><rect x="160" y="5368.36" width="1120" height="1" fill="#D6D1C5"/><text x="340.0" y="5409.36" font-family="Arial" font-size="11" fill="#46513E">05  /  LIGHTING</text><text x="340.0" y="5452.36" font-family="Georgia" font-size="43" fill="#292B25">Plug-In Wall Sconce</text><rect x="340.0" y="5527.4" width="760" height="420" fill="#F0EDE6"/><g transform="translate(440.0 5527.4) scale(1.4)" stroke="#857963" stroke-width="2" stroke-linejoin="round"><path d="M125 86H143V186H125ZM143 110H222V80" fill="#B3A181"/><path d="M193 80H252L276 151H169Z" fill="#DED5C3"/><path d="M135 188V245"/></g><rect x="574.0" y="5972.4" width="292" height="52" fill="#46513E"/><text x="720.0" y="6004.4" text-anchor="middle" font-family="Arial" font-size="12" fill="#FFFFFF">CHECK PRICE AT AMAZON ↗</text><text x="340.0" y="6057.4" font-family="Arial" font-size="11" fill="#46513E">WHY WE LIKE IT</text><text x="340.0" y="6089.4" font-family="Arial" font-size="18" fill="#292B25">A wall-mounted light can free up the bedside surface. Plan the cable route</text><text x="340.0" y="6112.44" font-family="Arial" font-size="18" fill="#292B25">and mounting position before choosing a fixture.</text></g><rect x="160" y="6221.48" width="1120" height="175" fill="#EEEADF"/><text x="184" y="6261.48" font-family="Arial" font-size="11" fill="#46513E">BEDROOM TIP</text><text x="184" y="6302.48" font-family="Georgia" font-size="25" fill="#292B25">Choose accessories that improve comfort, storage or visual cohesion. Leave room for</text><text x="184" y="6334.48" font-family="Georgia" font-size="25" fill="#292B25">the things you already love.</text><g id="find-6"><title>Upholstered Storage Bench</title><rect x="160" y="6481.48" width="1120" height="1" fill="#D6D1C5"/><text x="340.0" y="6522.48" font-family="Arial" font-size="11" fill="#46513E">06  /  STORAGE</text><text x="340.0" y="6565.48" font-family="Georgia" font-size="43" fill="#292B25">Upholstered Storage Bench</text><rect x="340.0" y="6640.5199999999995" width="760" height="420" fill="#F0EDE6"/><g transform="translate(440.0 6640.5199999999995) scale(1.4)" stroke="#857963" stroke-width="2" stroke-linejoin="round"><rect x="75" y="122" width="250" height="72" rx="15" fill="#CCBCA5"/><path d="M89 196V241M311 196V241M77 153H324"/></g><rect x="574.0" y="7085.5199999999995" width="292" height="52" fill="#46513E"/><text x="720.0" y="7117.5199999999995" text-anchor="middle" font-family="Arial" font-size="12" fill="#FFFFFF">CHECK PRICE AT AMAZON ↗</text><text x="340.0" y="7170.5199999999995" font-family="Arial" font-size="11" fill="#46513E">WHY WE LIKE IT</text><text x="340.0" y="7202.5199999999995" font-family="Arial" font-size="18" fill="#292B25">A bench can provide a place to sit and a home for spare textiles. Leave</text><text x="340.0" y="7225.5599999999995" font-family="Arial" font-size="18" fill="#292B25">enough room to walk comfortably around the bed.</text></g><g id="find-7"><title>Neutral Bedding Set</title><rect x="160" y="7334.599999999999" width="1120" height="1" fill="#D6D1C5"/><text x="340.0" y="7375.599999999999" font-family="Arial" font-size="11" fill="#46513E">07  /  BEDDING &amp; TEXTILES</text><text x="340.0" y="7418.599999999999" font-family="Georgia" font-size="43" fill="#292B25">Neutral Bedding Set</text><rect x="340.0" y="7493.639999999999" width="760" height="420" fill="#F0EDE6"/><g transform="translate(440.0 7493.639999999999) scale(1.4)" stroke="#857963" stroke-width="2" stroke-linejoin="round"><rect x="93" y="50" width="214" height="204" rx="12" fill="#DED5C3"/><rect x="107" y="68" width="84" height="48" rx="8" fill="#F8F5EE"/><rect x="209" y="68" width="84" height="48" rx="8" fill="#F8F5EE"/><path d="M93 129H307M93 218H307"/></g><rect x="574.0" y="7938.639999999999" width="292" height="52" fill="#46513E"/><text x="720.0" y="7970.639999999999" text-anchor="middle" font-family="Arial" font-size="12" fill="#FFFFFF">CHECK PRICE AT AMAZON ↗</text><text x="340.0" y="8023.639999999999" font-family="Arial" font-size="11" fill="#46513E">WHY WE LIKE IT</text><text x="340.0" y="8055.639999999999" font-family="Arial" font-size="18" fill="#292B25">A coordinated bedding set gives the room a calm foundation. Confirm the</text><text x="340.0" y="8078.679999999999" font-family="Arial" font-size="18" fill="#292B25">material, mattress fit and included pieces before ordering.</text></g><g id="find-8"><title>Soft Area Rug</title><rect x="160" y="8187.719999999999" width="1120" height="1" fill="#D6D1C5"/><text x="340.0" y="8228.72" font-family="Arial" font-size="11" fill="#46513E">08  /  BEDDING &amp; TEXTILES</text><text x="340.0" y="8271.72" font-family="Georgia" font-size="43" fill="#292B25">Soft Area Rug</text><rect x="340.0" y="8346.76" width="760" height="420" fill="#F0EDE6"/><g transform="translate(440.0 8346.76) scale(1.4)" stroke="#857963" stroke-width="2" stroke-linejoin="round"><path d="M109 63H291L328 243H73Z" fill="#C9BBA4"/><path d="M122 83H278L306 223H94ZM185 115L222 154L193 197L158 157Z" fill="none"/></g><rect x="574.0" y="8791.76" width="292" height="52" fill="#46513E"/><text x="720.0" y="8823.76" text-anchor="middle" font-family="Arial" font-size="12" fill="#FFFFFF">CHECK PRICE AT AMAZON ↗</text><text x="340.0" y="8876.76" font-family="Arial" font-size="11" fill="#46513E">WHY WE LIKE IT</text><text x="340.0" y="8908.76" font-family="Arial" font-size="18" fill="#292B25">A rug helps connect the bed with surrounding furniture. Mark out its</text><text x="340.0" y="8931.800000000001" font-family="Arial" font-size="18" fill="#292B25">dimensions before buying so the placement works on both sides.</text></g><g id="find-9"><title>Arched Mirror</title><rect x="160" y="9040.84" width="1120" height="1" fill="#D6D1C5"/><text x="340.0" y="9081.84" font-family="Arial" font-size="11" fill="#46513E">09  /  DECOR</text><text x="340.0" y="9124.84" font-family="Georgia" font-size="43" fill="#292B25">Arched Mirror</text><rect x="340.0" y="9199.880000000001" width="760" height="420" fill="#F0EDE6"/><g transform="translate(440.0 9199.880000000001) scale(1.4)" stroke="#857963" stroke-width="2" stroke-linejoin="round"><path d="M128 252V105A72 72 0 0 1 144 0V252Z" fill="#C9D0CA"/><path d="M140 250V107A60 60 0 0 1 120 0V250M159 194L231 95" fill="none"/></g><rect x="574.0" y="9644.880000000001" width="292" height="52" fill="#46513E"/><text x="720.0" y="9676.880000000001" text-anchor="middle" font-family="Arial" font-size="12" fill="#FFFFFF">CHECK PRICE AT AMAZON ↗</text><text x="340.0" y="9729.880000000001" font-family="Arial" font-size="11" fill="#46513E">WHY WE LIKE IT</text><text x="340.0" y="9761.880000000001" font-family="Arial" font-size="18" fill="#292B25">A mirror can brighten the feel of a corner and provide a useful dressing</text><text x="340.0" y="9784.920000000002" font-family="Arial" font-size="18" fill="#292B25">spot. Check its weight and the recommended securing method.</text></g><g id="find-10"><title>Framed Wall Art</title><rect x="160" y="9893.960000000001" width="1120" height="1" fill="#D6D1C5"/><text x="340.0" y="9934.960000000001" font-family="Arial" font-size="11" fill="#46513E">10  /  DECOR</text><text x="340.0" y="9977.960000000001" font-family="Georgia" font-size="43" fill="#292B25">Framed Wall Art</text><rect x="340.0" y="10053.000000000002" width="760" height="420" fill="#F0EDE6"/><g transform="translate(440.0 10053.000000000002) scale(1.4)" stroke="#857963" stroke-width="2" stroke-linejoin="round"><rect x="109" y="46" width="182" height="208" fill="#AD9576"/><rect x="122" y="59" width="156" height="182" fill="#E4DAC6"/><circle cx="200" cy="129" r="39" fill="#A5AD98"/><path d="M146 215L194 140L256 215Z" fill="#C4AE8F"/></g><rect x="574.0" y="10498.000000000002" width="292" height="52" fill="#46513E"/><text x="720.0" y="10530.000000000002" text-anchor="middle" font-family="Arial" font-size="12" fill="#FFFFFF">CHECK PRICE AT AMAZON ↗</text><text x="340.0" y="10583.000000000002" font-family="Arial" font-size="11" fill="#46513E">WHY WE LIKE IT</text><text x="340.0" y="10615.000000000002" font-family="Arial" font-size="18" fill="#292B25">Choose a quiet composition that works with your room palette. One well-</text><text x="340.0" y="10638.040000000003" font-family="Arial" font-size="18" fill="#292B25">scaled piece can be enough above a dresser or beside the bed.</text></g><g id="find-11"><title>Sculptural Vase</title><rect x="160" y="10747.080000000002" width="1120" height="1" fill="#D6D1C5"/><text x="340.0" y="10788.080000000002" font-family="Arial" font-size="11" fill="#46513E">11  /  DECOR</text><text x="340.0" y="10831.080000000002" font-family="Georgia" font-size="43" fill="#292B25">Sculptural Vase</text><rect x="340.0" y="10906.120000000003" width="760" height="420" fill="#F0EDE6"/><g transform="translate(440.0 10906.120000000003) scale(1.4)" stroke="#857963" stroke-width="2" stroke-linejoin="round"><path d="M174 83H226L218 126Q284 208 235 246H165Q116 208 182 126Z" fill="#BEAB91"/><path d="M199 83V38M199 64L172 39M199 49L223 26"/></g><rect x="574.0" y="11351.120000000003" width="292" height="52" fill="#46513E"/><text x="720.0" y="11383.120000000003" text-anchor="middle" font-family="Arial" font-size="12" fill="#FFFFFF">CHECK PRICE AT AMAZON ↗</text><text x="340.0" y="11436.120000000003" font-family="Arial" font-size="11" fill="#46513E">WHY WE LIKE IT</text><text x="340.0" y="11468.120000000003" font-family="Arial" font-size="18" fill="#292B25">A simple vase brings shape to a bedside table or dresser. Leave room around</text><text x="340.0" y="11491.160000000003" font-family="Arial" font-size="18" fill="#292B25">it so the arrangement feels considered and easy to maintain.</text></g><g id="find-12"><title>Wood Bedside Table</title><rect x="160" y="11600.200000000003" width="1120" height="1" fill="#D6D1C5"/><text x="340.0" y="11641.200000000003" font-family="Arial" font-size="11" fill="#46513E">12  /  USEFUL EXTRAS</text><text x="340.0" y="11684.200000000003" font-family="Georgia" font-size="43" fill="#292B25">Wood Bedside Table</text><rect x="340.0" y="11759.240000000003" width="760" height="420" fill="#F0EDE6"/><g transform="translate(440.0 11759.240000000003) scale(1.4)" stroke="#857963" stroke-width="2" stroke-linejoin="round"><rect x="112" y="91" width="176" height="128" fill="#BB9F7D"/><path d="M112 152H288M127 219V258M273 219V258M188 123H211M188 184H211"/></g><rect x="574.0" y="12204.240000000003" width="292" height="52" fill="#46513E"/><text x="720.0" y="12236.240000000003" text-anchor="middle" font-family="Arial" font-size="12" fill="#FFFFFF">CHECK PRICE AT AMAZON ↗</text><text x="340.0" y="12289.240000000003" font-family="Arial" font-size="11" fill="#46513E">WHY WE LIKE IT</text><text x="340.0" y="12321.240000000003" font-family="Arial" font-size="18" fill="#292B25">A practical bedside table puts a useful surface within reach. Compare its</text><text x="340.0" y="12344.280000000004" font-family="Arial" font-size="18" fill="#292B25">height with the mattress and consider how much storage you need.</text></g><g id="find-13"><title>Lidded Woven Basket</title><rect x="160" y="12453.320000000003" width="1120" height="1" fill="#D6D1C5"/><text x="340.0" y="12494.320000000003" font-family="Arial" font-size="11" fill="#46513E">13  /  USEFUL EXTRAS</text><text x="340.0" y="12537.320000000003" font-family="Georgia" font-size="43" fill="#292B25">Lidded Woven Basket</text><rect x="340.0" y="12612.360000000004" width="760" height="420" fill="#F0EDE6"/><g transform="translate(440.0 12612.360000000004) scale(1.4)" stroke="#857963" stroke-width="2" stroke-linejoin="round"><path d="M113 113H287L269 237H131Z" fill="#C5AD87"/><path d="M107 101H293V117H107ZM142 139H276M137 167H274M131 198H268M149 121L161 233M186 121L190 233M226 121L219 233M257 121L246 233M177 99V83H225V99" fill="none"/></g><rect x="574.0" y="13057.360000000004" width="292" height="52" fill="#46513E"/><text x="720.0" y="13089.360000000004" text-anchor="middle" font-family="Arial" font-size="12" fill="#FFFFFF">CHECK PRICE AT AMAZON ↗</text><text x="340.0" y="13142.360000000004" font-family="Arial" font-size="11" fill="#46513E">WHY WE LIKE IT</text><text x="340.0" y="13174.360000000004" font-family="Arial" font-size="18" fill="#292B25">A lidded basket gives loose textiles a defined place. Check the interior</text><text x="340.0" y="13197.400000000005" font-family="Arial" font-size="18" fill="#292B25">dimensions against the things you plan to store.</text></g><g id="find-14"><title>Room-Darkening Curtains</title><rect x="160" y="13306.440000000004" width="1120" height="1" fill="#D6D1C5"/><text x="340.0" y="13347.440000000004" font-family="Arial" font-size="11" fill="#46513E">14  /  USEFUL EXTRAS</text><text x="340.0" y="13390.440000000004" font-family="Georgia" font-size="43" fill="#292B25">Room-Darkening Curtains</text><rect x="340.0" y="13465.480000000005" width="760" height="420" fill="#F0EDE6"/><g transform="translate(440.0 13465.480000000005) scale(1.4)" stroke="#857963" stroke-width="2" stroke-linejoin="round"><path d="M95 54H305M109 61H192V247H109ZM209 61H292V247H209Z" fill="#CEC4B2"/><path d="M129 62V246M154 62V246M177 62V246M229 62V246M253 62V246M277 62V246"/></g><rect x="574.0" y="13910.480000000005" width="292" height="52" fill="#46513E"/><text x="720.0" y="13942.480000000005" text-anchor="middle" font-family="Arial" font-size="12" fill="#FFFFFF">CHECK PRICE AT AMAZON ↗</text><text x="340.0" y="13995.480000000005" font-family="Arial" font-size="11" fill="#46513E">WHY WE LIKE IT</text><text x="340.0" y="14027.480000000005" font-family="Arial" font-size="18" fill="#292B25">Curtains can soften a room and help manage incoming light. Check the fabric</text><text x="340.0" y="14050.520000000006" font-family="Arial" font-size="18" fill="#292B25">description, panel width and drop against your windows.</text></g><g id="find-15"><title>Decorative Cushion Cover</title><rect x="160" y="14159.560000000005" width="1120" height="1" fill="#D6D1C5"/><text x="340.0" y="14200.560000000005" font-family="Arial" font-size="11" fill="#46513E">15  /  USEFUL EXTRAS</text><text x="340.0" y="14243.560000000005" font-family="Georgia" font-size="43" fill="#292B25">Decorative Cushion Cover</text><rect x="340.0" y="14318.600000000006" width="760" height="420" fill="#F0EDE6"/><g transform="translate(440.0 14318.600000000006) scale(1.4)" stroke="#857963" stroke-width="2" stroke-linejoin="round"><path d="M116 73Q200 90 284 73Q267 150 284 227Q200 210 116 227Q133 150 116 73Z" fill="#ADA98F"/><path d="M136 94Q200 106 264 94M136 206Q200 193 264 206" fill="none"/></g><rect x="574.0" y="14763.600000000006" width="292" height="52" fill="#46513E"/><text x="720.0" y="14795.600000000006" text-anchor="middle" font-family="Arial" font-size="12" fill="#FFFFFF">CHECK PRICE AT AMAZON ↗</text><text x="340.0" y="14848.600000000006" font-family="Arial" font-size="11" fill="#46513E">WHY WE LIKE IT</text><text x="340.0" y="14880.600000000006" font-family="Arial" font-size="18" fill="#292B25">A cushion cover is a small way to introduce a new texture or color.</text><text x="340.0" y="14903.640000000007" font-family="Arial" font-size="18" fill="#292B25">Coordinate it with existing bedding and check the insert size.</text></g><text x="160" y="15012.680000000006" font-family="Georgia" font-size="39" fill="#292B25">More Bedroom Finds</text><g id="related-finds"><g data-related-card="true"><image x="160" y="15087.600000000006" width="262" height="180" preserveAspectRatio="xMidYMid slice" href="../assets/0f6bd4b6c657c8df.jpg"/><text x="160" y="15292.600000000006" font-family="Arial" font-size="11" fill="#46513E">SHOPPING FINDS</text><text x="160" y="15324.600000000006" font-family="Georgia" font-size="22" fill="#292B25">Small Bedroom Finds</text></g><g data-related-card="true"><image x="446" y="15087.600000000006" width="262" height="180" preserveAspectRatio="xMidYMid slice" href="../assets/5201c28de7b1f750.jpg"/><text x="446" y="15292.600000000006" font-family="Arial" font-size="11" fill="#46513E">SHOPPING FINDS</text><text x="446" y="15324.600000000006" font-family="Georgia" font-size="22" fill="#292B25">Affordable Bedroom</text><text x="446" y="15352.760000000006" font-family="Georgia" font-size="22" fill="#292B25">Decor Finds</text></g><g data-related-card="true"><image x="732" y="15087.600000000006" width="262" height="180" preserveAspectRatio="xMidYMid slice" href="../assets/0f6bd4b6c657c8df.jpg"/><text x="732" y="15292.600000000006" font-family="Arial" font-size="11" fill="#46513E">SHOPPING FINDS</text><text x="732" y="15324.600000000006" font-family="Georgia" font-size="22" fill="#292B25">Bedroom Organization</text><text x="732" y="15352.760000000006" font-family="Georgia" font-size="22" fill="#292B25">Finds</text></g><g data-related-card="true"><image x="1018" y="15087.600000000006" width="262" height="180" preserveAspectRatio="xMidYMid slice" href="../assets/5201c28de7b1f750.jpg"/><text x="1018" y="15292.600000000006" font-family="Arial" font-size="11" fill="#46513E">SHOPPING FINDS</text><text x="1018" y="15324.600000000006" font-family="Georgia" font-size="22" fill="#292B25">Cozy Bedroom Finds</text></g><g data-related-card="true"><image x="160" y="15433.920000000006" width="262" height="180" preserveAspectRatio="xMidYMid slice" href="../assets/0f6bd4b6c657c8df.jpg"/><text x="160" y="15638.920000000006" font-family="Arial" font-size="11" fill="#46513E">SHOPPING FINDS</text><text x="160" y="15670.920000000006" font-family="Georgia" font-size="22" fill="#292B25">Bedside Lighting Finds</text></g><g data-related-card="true"><image x="446" y="15433.920000000006" width="262" height="180" preserveAspectRatio="xMidYMid slice" href="../assets/5201c28de7b1f750.jpg"/><text x="446" y="15638.920000000006" font-family="Arial" font-size="11" fill="#46513E">SHOPPING FINDS</text><text x="446" y="15670.920000000006" font-family="Georgia" font-size="22" fill="#292B25">Warm Neutral Bedroom</text><text x="446" y="15699.080000000005" font-family="Georgia" font-size="22" fill="#292B25">Finds</text></g><g data-related-card="true"><image x="732" y="15433.920000000006" width="262" height="180" preserveAspectRatio="xMidYMid slice" href="../assets/0f6bd4b6c657c8df.jpg"/><text x="732" y="15638.920000000006" font-family="Arial" font-size="11" fill="#46513E">SHOPPING FINDS</text><text x="732" y="15670.920000000006" font-family="Georgia" font-size="22" fill="#292B25">Small-Space Storage</text><text x="732" y="15699.080000000005" font-family="Georgia" font-size="22" fill="#292B25">Finds</text></g><g data-related-card="true"><image x="1018" y="15433.920000000006" width="262" height="180" preserveAspectRatio="xMidYMid slice" href="../assets/5201c28de7b1f750.jpg"/><text x="1018" y="15638.920000000006" font-family="Arial" font-size="11" fill="#46513E">SHOPPING FINDS</text><text x="1018" y="15670.920000000006" font-family="Georgia" font-size="22" fill="#292B25">Bedding Finds Worth</text><text x="1018" y="15699.080000000005" font-family="Georgia" font-size="22" fill="#292B25">Discovering</text></g><g data-related-card="true"><image x="160" y="15780.240000000005" width="262" height="180" preserveAspectRatio="xMidYMid slice" href="../assets/0f6bd4b6c657c8df.jpg"/><text x="160" y="15985.240000000005" font-family="Arial" font-size="11" fill="#46513E">SHOPPING FINDS</text><text x="160" y="16017.240000000005" font-family="Georgia" font-size="22" fill="#292B25">Bedroom Rug Finds</text></g><g data-related-card="true"><image x="446" y="15780.240000000005" width="262" height="180" preserveAspectRatio="xMidYMid slice" href="../assets/5201c28de7b1f750.jpg"/><text x="446" y="15985.240000000005" font-family="Arial" font-size="11" fill="#46513E">SHOPPING FINDS</text><text x="446" y="16017.240000000005" font-family="Georgia" font-size="22" fill="#292B25">Bedroom Wall Decor</text><text x="446" y="16045.400000000005" font-family="Georgia" font-size="22" fill="#292B25">Finds</text></g><g data-related-card="true"><image x="732" y="15780.240000000005" width="262" height="180" preserveAspectRatio="xMidYMid slice" href="../assets/0f6bd4b6c657c8df.jpg"/><text x="732" y="15985.240000000005" font-family="Arial" font-size="11" fill="#46513E">SHOPPING FINDS</text><text x="732" y="16017.240000000005" font-family="Georgia" font-size="22" fill="#292B25">Nightstand Finds</text></g><g data-related-card="true"><image x="1018" y="15780.240000000005" width="262" height="180" preserveAspectRatio="xMidYMid slice" href="../assets/5201c28de7b1f750.jpg"/><text x="1018" y="15985.240000000005" font-family="Arial" font-size="11" fill="#46513E">SHOPPING FINDS</text><text x="1018" y="16017.240000000005" font-family="Georgia" font-size="22" fill="#292B25">Bedroom Curtain Finds</text></g></g><rect x="160" y="16191.560000000005" width="1120" height="210" fill="#EEEADF"/><text x="184" y="16232.560000000005" font-family="Arial" font-size="11" fill="#46513E">NEED HELP CHOOSING?</text><text x="184" y="16278.560000000005" font-family="Georgia" font-size="29" fill="#292B25">7 Best Bedside Lamps for Beautiful Bedrooms →</text><text x="184" y="16347.560000000005" font-family="Georgia" font-size="19" fill="#292B25">How to Choose Bedroom Lighting →</text><text x="160" y="16491.560000000005" font-family="Georgia" font-size="39" fill="#292B25">More Bedroom Inspiration</text><g id="related-inspiration"><g data-related-card="true"><image x="160" y="16566.480000000003" width="262" height="180" preserveAspectRatio="xMidYMid slice" href="../assets/0f6bd4b6c657c8df.jpg"/><text x="160" y="16771.480000000003" font-family="Arial" font-size="11" fill="#46513E">BEDROOM</text><text x="160" y="16803.480000000003" font-family="Georgia" font-size="22" fill="#292B25">15 Modern Luxury</text><text x="160" y="16831.640000000003" font-family="Georgia" font-size="22" fill="#292B25">Bedroom Ideas</text></g><g data-related-card="true"><image x="446" y="16566.480000000003" width="262" height="180" preserveAspectRatio="xMidYMid slice" href="../assets/5201c28de7b1f750.jpg"/><text x="446" y="16771.480000000003" font-family="Arial" font-size="11" fill="#46513E">BEDROOM</text><text x="446" y="16803.480000000003" font-family="Georgia" font-size="22" fill="#292B25">15 Small Bedroom Ideas</text></g><g data-related-card="true"><image x="732" y="16566.480000000003" width="262" height="180" preserveAspectRatio="xMidYMid slice" href="../assets/0f6bd4b6c657c8df.jpg"/><text x="732" y="16771.480000000003" font-family="Arial" font-size="11" fill="#46513E">BEDROOM</text><text x="732" y="16803.480000000003" font-family="Georgia" font-size="22" fill="#292B25">12 Warm Neutral Bedroom</text><text x="732" y="16831.640000000003" font-family="Georgia" font-size="22" fill="#292B25">Ideas</text></g><g data-related-card="true"><image x="1018" y="16566.480000000003" width="262" height="180" preserveAspectRatio="xMidYMid slice" href="../assets/5201c28de7b1f750.jpg"/><text x="1018" y="16771.480000000003" font-family="Arial" font-size="11" fill="#46513E">BEDROOM</text><text x="1018" y="16803.480000000003" font-family="Georgia" font-size="22" fill="#292B25">Minimalist Bedroom</text><text x="1018" y="16831.640000000003" font-family="Georgia" font-size="22" fill="#292B25">Ideas</text></g><g data-related-card="true"><image x="160" y="16912.800000000003" width="262" height="180" preserveAspectRatio="xMidYMid slice" href="../assets/0f6bd4b6c657c8df.jpg"/><text x="160" y="17117.800000000003" font-family="Arial" font-size="11" fill="#46513E">BEDROOM</text><text x="160" y="17149.800000000003" font-family="Georgia" font-size="22" fill="#292B25">Bedroom Lighting Ideas</text></g><g data-related-card="true"><image x="446" y="16912.800000000003" width="262" height="180" preserveAspectRatio="xMidYMid slice" href="../assets/5201c28de7b1f750.jpg"/><text x="446" y="17117.800000000003" font-family="Arial" font-size="11" fill="#46513E">BEDROOM</text><text x="446" y="17149.800000000003" font-family="Georgia" font-size="22" fill="#292B25">Small Bedroom Layout</text><text x="446" y="17177.960000000003" font-family="Georgia" font-size="22" fill="#292B25">Ideas</text></g><g data-related-card="true"><image x="732" y="16912.800000000003" width="262" height="180" preserveAspectRatio="xMidYMid slice" href="../assets/0f6bd4b6c657c8df.jpg"/><text x="732" y="17117.800000000003" font-family="Arial" font-size="11" fill="#46513E">BEDROOM</text><text x="732" y="17149.800000000003" font-family="Georgia" font-size="22" fill="#292B25">Cozy Bedroom Decorating</text><text x="732" y="17177.960000000003" font-family="Georgia" font-size="22" fill="#292B25">Ideas</text></g><g data-related-card="true"><image x="1018" y="16912.800000000003" width="262" height="180" preserveAspectRatio="xMidYMid slice" href="../assets/5201c28de7b1f750.jpg"/><text x="1018" y="17117.800000000003" font-family="Arial" font-size="11" fill="#46513E">BEDROOM</text><text x="1018" y="17149.800000000003" font-family="Georgia" font-size="22" fill="#292B25">Bedroom Storage Ideas</text></g></g><rect x="0" y="17324.120000000003" width="1440" height="295" fill="#46513E"/><text x="720.0" y="17392.120000000003" text-anchor="middle" font-family="Georgia" font-size="44" fill="#FFFFFF">Get Our Latest Home Finds</text><text x="720.0" y="17444.120000000003" text-anchor="middle" font-family="Arial" font-size="15" fill="#FFFFFF">Beautiful interiors, useful products and organization ideas.</text><rect x="320" y="17504.120000000003" width="610" height="54" fill="#FAF8F3"/><text x="340" y="17537.120000000003" font-family="Arial" font-size="16" fill="#292B25">Email address</text><rect x="948" y="17504.120000000003" width="172" height="54" fill="#DED5C4"/><text x="980" y="17537.120000000003" font-family="Arial" font-size="14" fill="#292B25">SIGN UP →</text><rect x="0" y="17619.120000000003" width="1440" height="455" fill="#EEEADF"/><text x="80" y="17699.120000000003" font-family="Georgia" font-size="43" fill="#292B25">home &amp; living</text><text x="80" y="17739.120000000003" font-family="Arial" font-size="14" fill="#292B25">Ideas for a home that feels like you.</text><text x="600" y="17695.120000000003" font-family="Arial" font-size="11" fill="#46513E">EXPLORE</text><text x="600" y="17734.120000000003" font-family="Arial" font-size="14" fill="#292B25">Interior Design</text><text x="600" y="17768.120000000003" font-family="Arial" font-size="14" fill="#292B25">Rooms</text><text x="600" y="17802.120000000003" font-family="Arial" font-size="14" fill="#292B25">Home Organization</text><text x="600" y="17836.120000000003" font-family="Arial" font-size="14" fill="#292B25">Shopping</text><text x="855" y="17695.120000000003" font-family="Arial" font-size="11" fill="#46513E">ROOMS</text><text x="855" y="17734.120000000003" font-family="Arial" font-size="14" fill="#292B25">Bedroom</text><text x="855" y="17768.120000000003" font-family="Arial" font-size="14" fill="#292B25">Living Room</text><text x="855" y="17802.120000000003" font-family="Arial" font-size="14" fill="#292B25">Kitchen</text><text x="855" y="17836.120000000003" font-family="Arial" font-size="14" fill="#292B25">Bathroom</text><text x="1110" y="17695.120000000003" font-family="Arial" font-size="11" fill="#46513E">SHOPPING</text><text x="1110" y="17734.120000000003" font-family="Arial" font-size="14" fill="#292B25">Best Products</text><text x="1110" y="17768.120000000003" font-family="Arial" font-size="14" fill="#292B25">Buying Guides</text><text x="1110" y="17802.120000000003" font-family="Arial" font-size="14" fill="#292B25">Shopping Finds</text><text x="1110" y="17836.120000000003" font-family="Arial" font-size="14" fill="#292B25">Shop the Look</text><text x="80" y="17789.120000000003" font-family="Arial" font-size="12" fill="#292B25">PINTEREST ↗     INSTAGRAM ↗</text><rect x="80" y="17899.120000000003" width="1280" height="1" fill="#D6D1C5"/><text x="80" y="17944.120000000003" font-family="Arial" font-size="14" fill="#292B25">About     Contact     Editorial Policy     Affiliate Disclosure     Privacy     Terms</text><text x="80" y="17989.120000000003" font-family="Arial" font-size="13" fill="#292B25">Some shopping links may earn us a commission. Read our affiliate disclosure.</text><text x="80" y="18033.120000000003" font-family="Arial" font-size="12" fill="#292B25">© 2026 Home &amp; Living. All rights reserved.</text></svg>